<?xml version="1.0" encoding="UTF-8"?>
<svg width="251.2mm" height="97.429mm" version="1.1" viewBox="0 0 890.08176 345.22076" xmlns="http://www.w3.org/2000/svg">
 <g transform="translate(154.51 -642.61)">
  <g stroke="#000">
   <path d="m342.72 643.11h1.184l0.8065 52.463h-2.7969z" fill="#1f241c" stroke-linecap="round"/>
   <rect x="340.62" y="694.94" width="5.1957" height="15.08" ry="0" fill="#1f241c" stroke-linecap="round"/>
   <rect x="335.92" y="708.69" width="15.412" height="12.724" ry="2.7931" fill="#1f241c" stroke-linecap="round"/>
   <rect x="294.62" y="706.72" width="15.412" height="14.696" ry="3.2258" fill="#1f241c" stroke-linecap="round"/>
   <rect x="318.62" y="706.72" width="15.412" height="14.696" ry="3.2258" fill="#1f241c" stroke-linecap="round"/>
   <path d="m459.72 792.21h-226.95v4.875s6.6445 0.89218 6.6562 13.406h220.29z" fill="#1f241c"/>
   <path d="m175.02 751.14-329.03 2.6131v13.344l329.03 2.6131v-9.285z" fill="#1f241c"/>
   <path d="m182.12 743.7h31.9c3.9322 0 7.0978 3.1656 7.0978 7.0979v19.259c0 3.9322-3.1656 7.0979-7.0978 7.0979h-31.9c-3.9322 0-7.0979-3.1656-7.0979-7.0979v-19.259c0-3.9322 3.1657-7.0979 7.0979-7.0979z" fill="#1f241c"/>
   <rect transform="matrix(.97476 -.22326 .22732 .97382 0 0)" x="60.284" y="757.2" width="34.792" height="16.034" ry="1.7984" fill="#1f241c"/>
   <path d="m182.12 772.58h25.812m-25.812-3.875h25.812m-25.812-16.531h25.812m-25.812-3.9062h25.812m-25.812-4.5625v4.5625c-1.0051 0.0849-1.7812 0.90965-1.7812 1.9375 0 1.0285 0.7751 1.8848 1.7812 1.9688v16.531c-1.0051 0.0849-1.7812 0.90965-1.7812 1.9375s0.7761 1.8526 1.7812 1.9375v4.5625h25.812v-4.5625c1.0052-0.0849 1.7813-0.90965 1.7813-1.9375s-0.7761-1.8526-1.7813-1.9375v-16.531c1.0061-0.084 1.7813-0.94021 1.7813-1.9688 0-1.0278-0.7761-1.8526-1.7813-1.9375v-4.5625h-25.812z" fill="#1f241c"/>
   <path d="m491.02 715.24c-0.4243-0.0105-0.7188 0.0625-0.7188 0.0625h-207.34l-50.25 11.781v0.0625c-17.847 1.0368-32 15.831-32 33.938s14.153 32.901 32 33.938v0.0625h262.41c12.276 0 8.7813-13.094 8.7813-13.094l-8.375-61.062c-0.6049-4.9732-3.2273-5.656-4.5-5.6875z" fill="#1f241c"/>
   <path d="m491.02 715.24c-0.4243-0.0105-0.7188 0.0625-0.7188 0.0625h-207.34l-50.25 11.781v0.0625c-15.917 2.8344-28 17.268-28 34 0 16.731 12.084 31.108 28 33.944v-6e-3h3.8125c0.7246 0.0461 1.4512 0.0625 2.1875 0.0625 0.7362 0 1.4629-0.0164 2.1875-0.0625h254.22c12.276 0 8.7813-13.094 8.7813-13.094l-8.375-61.062c-0.6049-4.9732-3.2273-5.656-4.5-5.6875z" fill="#1f241c"/>
   <rect x="321.12" y="752.5" width="92.684" height="27.24" fill="#1f241c"/>
   <path d="m475.97 712.56c0 6.9987-10.825 12.672-24.178 12.672s-24.178-5.6736-24.178-12.672c0-6.9987 10.825-12.672 24.178-12.672s24.178 5.6736 24.178 12.672z" fill="#1f241c" stroke-width=".99999"/>
   <rect x="352.52" y="692.62" width="79.171" height="36.75" ry="4.1219" fill="#1f241c"/>
   <rect x="282.52" y="712.14" width="207.92" height="36.75" ry="4.1219" fill="#1f241c"/>
   <path d="m451.82 699.93c-12.758 0-23.219 5.1844-24.125 11.75h4.2812s-0.052-1.75 3.7813-1.75h2.1562c3.8334 0 3.75 1.75 3.75 1.75h19.718s-0.083-1.75 3.75-1.75h2.1562c3.8334 0 3.7813 1.75 3.7813 1.75h4.8437c-0.9065-6.5656-11.335-11.75-24.094-11.75z" fill="#1f241c"/>
   <rect x="352.52" y="696.62" width="79.171" height="36.75" ry="0" fill="#1f241c"/>
   <path d="m491.02 715.24c-0.4243-0.0105-0.7188 0.0625-0.7188 0.0625h-207.34l-50.25 11.781v0.0625c-15.917 2.8344-28 17.268-28 34 0 6.7969 2.0021 13.19 5.4375 18.594h116.53s27.911-13.342 38.375-14.375c0.421-0.0415 1.6697-0.0625 2.0313-0.0625s1.6102 0.021 2.0312 0.0625c10.464 1.0327 38.344 14.375 38.344 14.375h96.125l-8.0625-58.812c-0.6049-4.9732-3.2273-5.656-4.5-5.6875z" fill="#1f241c"/>
   <path d="m512.92 785.76c-1.6001 0-2.8406 1.0179-3.2812 1.9375-0.4259 0.88873-0.3783 1.6634-0.375 1.7188 1e-4 2e-3 0 0.0625 0 0.0625v8.2662c-0.011 0.79247 0.7074 1.5214 1.5 1.5214 0.7925 0 1.5112-0.72889 1.5-1.5214v-8.3911s0.019-0.21935 0.094-0.375-0.078-0.21875 0.5625-0.21875h50c0.64 0 0.4879 0.0631 0.5625 0.21875 0.075 0.15565 0.094 0.375 0.094 0.375v8.3911c-0.011 0.79247 0.7074 1.5214 1.5 1.5214 0.7925 0 1.5112-0.72889 1.5-1.5214v-8.2662s-1e-4 -0.0606 0-0.0625c0-0.0554 0.051-0.83002-0.375-1.7188-0.4407-0.91963-1.6812-1.9375-3.2813-1.9375h-50z" color="#000000" fill="#1f241c" style="block-progression:tb;text-indent:0;text-transform:none"/>
   <g transform="matrix(.70711 .70711 -.70711 .70711 -200.81 902.7)" fill="#1f241c">
    <path d="m613.22-676.59c-1.046 0.68669-2.0984 1.3624-3.1875 1.9062-7.0694 3.5304-14.375 3.5625-14.375 3.5625h-13.531v9.875l13.531 0.0313s9.2568 0.0533 18.688-4.6563c1.9636-0.98063 3.9054-2.2858 5.8125-3.7812l-6.9375-6.9375z" color="#000000" style="block-progression:tb;text-indent:0;text-transform:none"/>
    <rect x="559.86" y="-676.14" width="47.395" height="19.388" stroke-linecap="round"/>
   </g>
   <path d="m171.72 849.08-37.339 0.0574v2.2285l37.339 0.0574v-2.3433z" fill="#1f241c"/>
   <path d="m161.22 839.96c-1.0922 0-1.9688 0.87662-1.9688 1.9688v4.4375h-11.562c-1.0921 0-1.9687 0.87662-1.9687 1.9688v8.2188h29.156v-8.2188c0-0.08-0.022-0.1413-0.031-0.21875h13.562v-6.1875c0-1.0921-0.8766-1.9688-1.9687-1.9688z" fill="#1f241c"/>
   <path d="m253.62 824.04h-75.052c-6.1144 0-6.8113 6.8114-6.8113 6.8114l-11.15 41.612h79.264z" fill="#1f241c"/>
   <path d="m450.02 797.7c-20.453 0-22.248 13.007-22.312 13.531v18.812h228.56l-32.469-32.344c-57.737-0.26553-116.52 0-173.78 0z" fill="#1f241c"/>
   <path d="m562.72 801.39h-124.55m124.55 2.2357h-124.55m124.55 2.2357h-124.55m124.55 2.2357h-124.55m124.55 2.2357h-124.55m124.55 2.2357h-124.55m124.55-11.178v11.178m-24.911-11.178v11.178m-24.911-11.178v11.178m-24.911-11.178v11.178m-24.911-11.178v11.178m-24.911-11.178v11.178" fill="#1f241c"/>
   <path d="m243.12 810.83-154.22 95.281 59.849 42.334h511.91l59.9-56.24-81.375-81.375z" fill="#1f241c"/>
   <path d="m163.12 845.05c-3.4019 6.9534-5.3248 10.088-7.6995 11.692-1.7176-0.8313-1.1847-8.1161 2.2171-15.069 3.4019-6.9534 8.3846-10.942 10.102-10.111 0.2544 3.5915-1.218 6.5346-4.6198 13.488z" fill="#1f241c"/>
   <g transform="translate(145.32 1523)" fill="#1f241c">
    <path d="m203.01-598.01h28.766v19.416h-28.766z"/>
    <path transform="translate(1.0138,1.3306)" d="m206.75-596.62c0 0.94483-0.76594 1.7108-1.7108 1.7108-0.94483 0-1.7108-0.76593-1.7108-1.7108 0-0.94483 0.76593-1.7108 1.7108-1.7108 0.94483 0 1.7108 0.76593 1.7108 1.7108z"/>
    <path transform="matrix(1.1057,0,0,1.1057,-20.945,63.588)" d="m224.02-589.59c0 4.3055-3.4903 7.7958-7.7958 7.7958s-7.7958-3.4903-7.7958-7.7958 3.4903-7.7958 7.7958-7.7958 7.7958 3.4903 7.7958 7.7958z" stroke-width=".90444"/>
    <path transform="matrix(-1,0,0,1,433.77,1.3306)" d="m206.75-596.62c0 0.94483-0.76594 1.7108-1.7108 1.7108-0.94483 0-1.7108-0.76593-1.7108-1.7108 0-0.94483 0.76593-1.7108 1.7108-1.7108 0.94483 0 1.7108 0.76593 1.7108 1.7108z"/>
    <path transform="matrix(-1,0,0,-1,433.77,-1177.9)" d="m206.75-596.62c0 0.94483-0.76594 1.7108-1.7108 1.7108-0.94483 0-1.7108-0.76593-1.7108-1.7108 0-0.94483 0.76593-1.7108 1.7108-1.7108 0.94483 0 1.7108 0.76593 1.7108 1.7108z"/>
    <path d="m220.69-596.09c-4.3055 1e-3 -7.7812 3.4758-7.7812 7.7812 0 4.3055 3.4758 7.7812 7.7812 7.7812h43.125c0.26207 0.0266 0.51216 0.0312 0.78125 0.0312 4.3055 0 7.8125-3.507 7.8125-7.8125s-3.507-7.7812-7.8125-7.7812h-43.906z"/>
    <path d="m222.72-594.37c-3.375 0-6.0996 2.7116-6.0996 6.0705s2.7246 6.0705 6.0996 6.0705h23.888v-12.141z"/>
    <path transform="matrix(1,0,0,-1,1.0138,-1177.9)" d="m206.75-596.62c0 0.94483-0.76594 1.7108-1.7108 1.7108-0.94483 0-1.7108-0.76593-1.7108-1.7108 0-0.94483 0.76593-1.7108 1.7108-1.7108 0.94483 0 1.7108 0.76593 1.7108 1.7108z"/>
    <path transform="translate(48.377,1.2921)" d="m224.02-589.59c0 4.3055-3.4903 7.7958-7.7958 7.7958s-7.7958-3.4903-7.7958-7.7958 3.4903-7.7958 7.7958-7.7958 7.7958 3.4903 7.7958 7.7958z"/>
   </g>
   <rect x="193.72" y="840.84" width="141.58" height="17.205" fill="#1f241c" stroke-linecap="round"/>
   <g transform="translate(145.32 1523)" fill="#1f241c" stroke-linecap="round">
    <rect transform="matrix(.75848 .6517 -.6517 .75848 0 0)" x="-70.129" y="-870.55" width="38.144" height="2.9146"/>
    <path d="m516.14-704.89 25.549 21.952-15.799 3.0431-10.379-8.9181z"/>
    <path transform="translate(-.29685 -.12442)" d="m560.04-703.4c0 12.471-10.11 22.581-22.581 22.581s-22.581-10.11-22.581-22.581 10.11-22.581 22.581-22.581 22.581 10.11 22.581 22.581z"/>
    <path d="m537.17-720.02c-9.1059 0-16.5 7.3941-16.5 16.5s7.3941 16.5 16.5 16.5c7.6451 0 14.071-5.2228 15.938-12.281l-4.1875-4.3125 4.1875-4.0312c-1.8362-7.1027-8.261-12.375-15.938-12.375z"/>
   </g>
   <path d="m254.82 816.43c-1.6001 0-2.8406 1.0179-3.2813 1.9375-0.4258 0.88873-0.3782 1.6634-0.375 1.7188 1e-4 2e-3 0 0.0625 0 0.0625v2.2662c-0.011 0.79247 0.7075 1.5214 1.5 1.5214 0.7926 0 1.5112-0.72889 1.5-1.5214v-2.3911s0.019-0.21935 0.094-0.375-0.078-0.21875 0.5625-0.21875h50c0.6401 0 0.4879 0.0631 0.5625 0.21875 0.075 0.15565 0.094 0.375 0.094 0.375v2.3911c-0.011 0.79247 0.7075 1.5214 1.5 1.5214 0.7926 0 1.5112-0.72889 1.5-1.5214v-2.2662s-1e-4 -0.0606 0-0.0625c0-0.0554 0.051-0.83002-0.375-1.7188-0.4406-0.91963-1.6812-1.9375-3.2812-1.9375h-50z" color="#000000" fill="#1f241c" style="block-progression:tb;text-indent:0;text-transform:none"/>
   <path d="m320.42 816.43c-1.6001 0-2.8406 1.0179-3.2812 1.9375-0.4259 0.88873-0.3783 1.6634-0.375 1.7188 1e-4 2e-3 0 0.0625 0 0.0625v2.2662c-0.011 0.79247 0.7074 1.5214 1.5 1.5214 0.7925 0 1.5112-0.72889 1.5-1.5214v-2.3911s0.019-0.21935 0.094-0.375-0.078-0.21875 0.5625-0.21875h50c0.6401 0 0.4879 0.0631 0.5625 0.21875 0.075 0.15565 0.094 0.375 0.094 0.375v2.3911c-0.011 0.79247 0.7074 1.5214 1.5 1.5214 0.7925 0 1.5112-0.72889 1.5-1.5214v-2.2662s-1e-4 -0.0606 0-0.0625c0-0.0554 0.051-0.83002-0.375-1.7188-0.4407-0.91963-1.6812-1.9375-3.2813-1.9375h-50z" color="#000000" fill="#1f241c" style="block-progression:tb;text-indent:0;text-transform:none"/>
   <path d="m384.92 810.09c-1.6001 0-2.8406 1.0179-3.2812 1.9375-0.4259 0.88873-0.3783 1.6634-0.375 1.7188 1e-4 2e-3 0 0.0625 0 0.0625v2.2662c-0.011 0.79247 0.7074 1.5214 1.5 1.5214 0.7925 0 1.5112-0.72889 1.5-1.5214v-2.3911s0.019-0.21935 0.094-0.375-0.078-0.21875 0.5625-0.21875h50c0.64 0 0.4879 0.0631 0.5625 0.21875 0.075 0.15565 0.094 0.375 0.094 0.375v2.3911c-0.011 0.79247 0.7074 1.5214 1.5 1.5214 0.7925 0 1.5112-0.72889 1.5-1.5214v-2.2662s-2e-4 -0.0606 0-0.0625c0-0.0554 0.051-0.83002-0.375-1.7188-0.4407-0.91963-1.6812-1.9375-3.2813-1.9375h-50z" color="#000000" fill="#1f241c" style="block-progression:tb;text-indent:0;text-transform:none"/>
   <path d="m449.62 810.09c-1.6001 0-2.8406 1.0179-3.2812 1.9375-0.4259 0.88873-0.3783 1.6634-0.375 1.7188 1e-4 2e-3 0 0.0625 0 0.0625v2.2662c-0.011 0.79247 0.7074 1.5214 1.5 1.5214 0.7925 0 1.5112-0.72889 1.5-1.5214v-2.3911s0.019-0.21935 0.094-0.375-0.078-0.21875 0.5625-0.21875h50c0.6401 0 0.4879 0.0631 0.5625 0.21875 0.075 0.15565 0.094 0.375 0.094 0.375v2.3911c-0.011 0.79247 0.7074 1.5214 1.5 1.5214 0.7925 0 1.5112-0.72889 1.5-1.5214v-2.2662s-1e-4 -0.0606 0-0.0625c0-0.0554 0.051-0.83002-0.375-1.7188-0.4407-0.91963-1.6812-1.9375-3.2813-1.9375h-50z" color="#000000" fill="#1f241c" style="block-progression:tb;text-indent:0;text-transform:none"/>
   <path d="m392.62 734.64c-1.6 0-2.8405 1.0179-3.2812 1.9375-0.4259 0.88873-0.3783 1.6634-0.375 1.7188 1e-4 2e-3 0 0.0625 0 0.0625v2.2662c-0.011 0.79247 0.7074 1.5214 1.5 1.5214 0.7925 0 1.5112-0.72889 1.5-1.5214v-2.3911s0.019-0.21935 0.094-0.375-0.078-0.21875 0.5625-0.21875h50c0.6401 0 0.4879 0.0631 0.5625 0.21875 0.075 0.15565 0.094 0.375 0.094 0.375v2.3911c-0.011 0.79247 0.7074 1.5214 1.5 1.5214 0.7925 0 1.5112-0.72889 1.5-1.5214v-2.2662s-1e-4 -0.0606 0-0.0625c0-0.0554 0.051-0.83002-0.375-1.7188-0.4407-0.91963-1.6812-1.9375-3.2813-1.9375h-50z" color="#000000" fill="#1f241c" style="block-progression:tb;text-indent:0;text-transform:none"/>
   <path d="m607.87 793.65c0 1.4847-1.2036 2.6882-2.6882 2.6882s-2.6882-1.2036-2.6882-2.6882 1.2036-2.6882 2.6882-2.6882c1.4847 0 2.6882 1.2036 2.6882 2.6882z" fill="#1f241c" stroke-linecap="round"/>
   <rect x="549.52" y="793.65" width="111.26" height="40.551" fill="#241f1c" stroke-linecap="round"/>
   <g transform="matrix(1 0 0 1.2576 146.32 1710.9)" fill="#1f241c" stroke-linecap="round" stroke-width=".89172">
    <rect x="430.35" y="-729.37" width="4.562" height="40.551"/>
    <rect x="482.82" y="-729.37" width="4.562" height="40.551"/>
   </g>
   <g transform="matrix(1 0 0 .24241 146.32 1006.8)" fill="#1f241c" stroke-linecap="round" stroke-width="2.0311">
    <rect x="430.35" y="-729.37" width="4.562" height="40.551"/>
    <rect x="482.82" y="-729.37" width="4.562" height="40.551"/>
   </g>
   <rect x="392.92" y="705.49" width="19.896" height="4.2932" ry="2.1466" fill="#1f241c" stroke-linecap="round"/>
   <path d="m395.92 707.63h13.889" fill="#1f241c"/>
   <rect x="351.02" y="705.49" width="16.042" height="4.2932" ry="2.1466" fill="#1f241c" stroke-linecap="round"/>
   <path d="m353.42 707.63h11.199" fill="#1f241c"/>
   <path d="m213.62 811.08v0c5.7862 0 14.56 4.6819 14.56 10.457v0c0 5.7754-8.7733 10.457-14.56 10.457v0z" fill="#1f241c" stroke-linecap="round"/>
   <path d="m213.42 831.17c-2.8439 0-5.1494-4.3166-5.1494-9.6415 0-5.3248 2.3072-9.6415 5.1494-9.6415z" fill="#1f241c" stroke-linecap="round"/>
   <path d="m239.82 827.55h17.488v5.956h-17.488z" fill="#1f241c" stroke-linecap="round"/>
   <path d="m257.32 827.55 6.1848-3.4947v12.945l-6.1848-3.4946z" fill="#1f241c" stroke-linecap="round"/>
   <path d="m241.22 837.88c-4.0593 0-7.35-3.2907-7.35-7.35s3.2907-7.35 7.35-7.35v0z" fill="#1f241c" stroke-linecap="round"/>
   <rect x="193.72" y="843.12" width="141.58" height="17.205" fill="#1f241c" stroke-linecap="round"/>
   <g transform="matrix(1 0 0 .82844 146.12 1407.4)" fill="#1f241c" stroke-linecap="round" stroke-width="1.0987">
    <rect transform="scale(-1)" x="-171.84" y="670.44" width="2.5345" height="11.188" ry="0"/>
    <path d="m168.94-685.47c-0.38468 0.408-0.65625 0.9549-0.65625 1.5625v6.625c0 1.2637 1.0176 2.2812 2.2812 2.2812 1.2637 0 2.2812-1.0176 2.2812-2.2812v-6.625c0-0.6076-0.24032-1.1545-0.625-1.5625-0.41454 0.43155-1.0078 0.71875-1.6562 0.71875-0.64842 0-1.2105-0.2872-1.625-0.71875z"/>
    <rect transform="scale(-1)" x="-67.417" y="670.44" width="2.5345" height="11.188" ry="0"/>
    <path d="m64.518-685.47c-0.38468 0.408-0.65625 0.9549-0.65625 1.5625v6.625c0 1.2637 1.0176 2.2812 2.2812 2.2812 1.2637 0 2.2812-1.0176 2.2812-2.2812v-6.625c0-0.6076-0.24032-1.1545-0.625-1.5625-0.41454 0.43155-1.0078 0.71875-1.6562 0.71875-0.64842 0-1.2105-0.2872-1.625-0.71875z"/>
   </g>
   <path d="m161.02 851.94c-2.2076 0.5915-3.5305 2.8828-2.939 5.0903 0.5916 2.2075 2.8748 3.5002 5.0823 2.9087 1.5106-0.4047 2.5648-1.5944 2.9132-3.0129l13.583-3.6396c1.0549-0.28266 1.6747-1.3563 1.3921-2.4112-0.2827-1.0549-1.3563-1.6748-2.4112-1.3921l-13.553 3.6316c-1.0106-1.0686-2.5472-1.5821-4.0676-1.1747zm0.6066 2.2639c0.9646-0.25848 1.9613 0.31697 2.2198 1.2816 0.2585 0.9647-0.3169 1.9614-1.2816 2.2198-0.9647 0.2585-1.9614-0.3169-2.2199-1.2816-0.2584-0.9646 0.317-1.9614 1.2817-2.2198z" fill="#1f241c" stroke-linecap="round"/>
   <path d="m184.62 860.69c2.2075-0.5915 3.5304-2.8828 2.9389-5.0903s-2.8748-3.5002-5.0823-2.9087c-1.5106 0.40475-2.5648 1.5944-2.9132 3.0129l-13.583 3.6396c-1.055 0.2827-1.6748 1.3563-1.3922 2.4112 0.2827 1.0549 1.3563 1.6748 2.4113 1.3921l13.553-3.6316c1.0106 1.0686 2.5472 1.5821 4.0677 1.1747zm-0.6067-2.2639c-0.9646 0.2585-1.9613-0.3169-2.2198-1.2816-0.2585-0.9646 0.317-1.9614 1.2816-2.2198 0.9647-0.2585 1.9614 0.317 2.2199 1.2816 0.2585 0.9647-0.317 1.9614-1.2817 2.2198z" fill="#1f241c" stroke-linecap="round"/>
   <rect x="193.82" y="854.51" width="490.75" height="5.0046" ry="1.9467" fill="#1f241c"/>
   <rect x="188.62" y="857.52" width="503.47" height="5.0681" ry="1.9714" fill="#1f241c"/>
   <path d="m112.62 860.56s-39.031-0.2534-51.196 43.593l24.331 6.0827 72.739-44.48h532.24l30.977 30.499 13.037-12.625-39.958-23.07z" fill="#1f241c"/>
   <path d="m105.02 903.56c0.399-0.2188 0.5801-0.6568 0.6329-1.2216 0.053-0.5647-0.025-1.2544-0.1896-1.9447-0.8496-3.9414-1.2509-8.0267-1.1792-12.173 0.4359-0.1288 0.8745-0.2481 1.3155-0.3578 0.4207 0.6493 1.0144 1.1478 1.6808 1.4631 0.6665 0.3153 1.406 0.448 2.1757 0.3498 0.9603-0.1226 1.7908-0.5843 2.4195-1.2683 0.6288-0.684 1.0566-1.594 1.0566-2.6088s-0.453-1.9418-1.2514-2.5791-1.9415-0.9767-3.1539-0.8217c-0.9716 0.1242-1.817 0.5435-2.4239 1.1249s-0.9759 1.3225-1.0613 2.0975c-0.2256 0.056-0.4506 0.1144-0.6749 0.1752-5.2047 1.4089-10.058 4.0689-14.027 7.7602-0.1625 0.1511-0.3235 0.304-0.4831 0.4586-0.2896-0.138-0.6005-0.2315-0.9242-0.278-1.2504-0.1777-2.7072 0.3795-3.6836 1.5937-0.7666 0.9534-1.072 2.1012-0.9453 3.1118s0.6782 1.8807 1.5406 2.4142 1.8602 0.6489 2.7724 0.472c0.9122-0.1768 1.7414-0.6441 2.3483-1.398 0.7729-0.9602 1.036-2.1844 0.797-3.3642-0.062-0.305-0.1587-0.6056-0.294-0.8933 0.319-0.3097 0.6447-0.612 0.9769-0.9069 3.5584 2.1306 6.7952 4.6457 9.6697 7.4691 0.4951 0.5077 1.0347 0.9428 1.5383 1.2016 0.5035 0.2589 0.9683 0.3426 1.3673 0.1238zm-6.5623 21.256c-0.2128-0.4168-0.6518-0.6209-1.2203-0.7007-0.5686-0.08-1.2652-0.033-1.9647 0.1011-3.9909 0.674-8.0939 0.9028-12.232 0.6491-0.1097-0.44-0.2097-0.8825-0.2997-1.327 0.6669-0.3901 1.1908-0.9591 1.5359-1.6079 0.3452-0.6489 0.5123-1.378 0.4523-2.1485-0.06-0.7653-0.3362-1.4571-0.7738-2.0457-0.6632-0.8915-1.6968-1.5584-2.9162-1.6227-1.2193-0.064-2.3505 0.5395-3.0248 1.6227-0.4408 0.7199-0.6733 1.6406-0.5951 2.6159 0.079 0.9818 0.459 1.8494 1.0119 2.4841 0.553 0.6347 1.2763 1.0372 2.0463 1.1576 0.046 0.2277 0.094 0.455 0.145 0.6816 1.1767 5.2574 3.6345 10.19 7.0743 14.315 0.1409 0.1689 0.2833 0.3364 0.4275 0.5026-0.3818 0.6789-0.5066 1.499-0.3445 2.3251 0.1622 0.8261 0.6131 1.6562 1.3315 2.3128 0.8965 0.8193 2.024 1.1988 3.0462 1.1409 1.0222-0.058 1.9339-0.5471 2.5291-1.3674 0.5953-0.8204 0.7813-1.8023 0.6695-2.7184-0.1118-0.9162-0.52-1.7702-1.2342-2.424-0.5724-0.524-1.2612-0.8482-1.9961-0.9817s-1.5167-0.076-2.2391 0.2101c-0.2901-0.3346-0.5732-0.6753-0.8492-1.0218 2.3471-3.4193 5.0347-6.5285 7.9953-9.2756 0.5317-0.4718 0.99-0.9947 1.2664-1.4925 0.2764-0.4977 0.3717-0.9677 0.1589-1.3845zm30.128 19.307c-1.449-0.7065-2.8548 4e-4 -3.8079 1.0899-2.819 3.0224-5.6589 6.0303-8.5185 9.0243-0.3961-0.1987-0.7919-0.3979-1.1876-0.5975 0.2219-1.5282-0.5327-3.0697-1.9933-3.8171-0.8106-0.4147-1.6956-0.5085-2.512-0.327-1.0191 0.2265-1.9319 0.8821-2.4511 1.8823-0.5193 1.0002-0.5334 2.1339-0.1258 3.107 0.3265 0.7794 0.9234 1.4557 1.7436 1.8754 1.4779 0.7562 3.1981 0.4297 4.297-0.6559 0.1891 0.095 0.3783 0.1907 0.5675 0.2859 4.3899 2.2089 8.808 4.3651 13.256 6.4611 0.1821 0.086 0.3643 0.1716 0.5465 0.2572-0.177 1.5346 0.6573 3.1046 2.1671 3.8017 1.8841 0.8699 4.0844 0.045 4.9218-1.8038 0.8375-1.8488 0.014-4.0058-1.8435-4.8636-1.4888-0.6874-3.1955-0.3441-4.262 0.7727-0.3915-0.184-0.7829-0.3685-1.174-0.5534 0.5949-4.0972 1.2156-8.1867 1.8611-12.269 0.2716-1.4218-0.036-2.9642-1.4851-3.6707zm40.349 17.304c-1.472-0.5162-2.7636 0.3491-3.5834 1.539-2.4446 3.3213-4.9398 6.6155-7.4799 9.8847-0.4149-0.1574-0.8294-0.3158-1.2436-0.4752 0.068-1.5428-0.8307-2.9998-2.3511-3.6053-1.8971-0.7555-4.0295 0.1238-4.8015 2.0011-0.772 1.8774 0.1431 4.049 2.0849 4.8217 1.5561 0.6193 3.2498 0.1292 4.2373-1.0596 0.1988 0.077 0.3977 0.1528 0.5967 0.2288 3.8649 1.477 7.7664 2.8734 11.71 4.1661 0.7666 0.2514 1.5356 0.499 2.3071 0.7419 0.1941 0.061 0.3883 0.122 0.5827 0.1825 0.04 1.5464 1.1141 2.9969 2.7537 3.469 2.0458 0.5892 4.1275-0.587 4.6384-2.551s-0.6523-3.9432-2.6037-4.506c-1.5638-0.451-3.1959 0.1274-4.1009 1.3796-0.4144-0.129-0.8282-0.2594-1.2416-0.3912 0.02-1.9271 0.055-3.8516 0.104-5.7734 0.056-2.2086 0.1295-4.414 0.2202-6.6162 0.1043-1.4407-0.3574-2.9204-1.8294-3.4366zm39.975 6.5289c-1.6521 0-2.6187 1.2573-2.9918 2.6562-1.1947 3.9583-2.3892 7.9165-3.5836 11.875h-1.3275c-0.4959-1.4643-1.8743-2.5-3.5194-2.5-0.053 0-0.1047 1e-3 -0.1567 0-0.9497 0.05-1.8109 0.4404-2.4746 1.064-0.6637 0.6237-1.1282 1.4831-1.2009 2.4686-0.073 0.9855 0.2706 1.9147 0.9335 2.6112 0.6628 0.6965 1.6482 1.1572 2.7743 1.1934h0.1567c1.645 0 3.014-1.067 3.4972-2.5312h15.898c0.4957 1.4642 1.9054 2.5312 3.5504 2.5312 2.0527 0 3.6911-1.6579 3.6827-3.6874-0.01-2.0296-1.6603-3.6561-3.7131-3.6561-1.6452 0-3.0463 1.0357-3.5296 2.5h-1.2959c-1.2282-3.9583-2.4566-7.9165-3.6852-11.875-0.3851-1.399-1.3623-2.6562-3.0143-2.6562zm45.521 0c-1.6521 0-2.6193 1.2573-2.993 2.6563-1.1966 3.9583-2.3931 7.9165-3.5894 11.875h-1.3275c-0.4952-1.4643-1.8731-2.5-3.5182-2.5-2.0528 0-3.6916 1.6266-3.6836 3.6561 0.01 2.0296 1.6597 3.6874 3.7124 3.6874 1.6449 0 3.0145-1.067 3.4984-2.5312h15.898c0.495 1.4642 1.9042 2.5312 3.5492 2.5312 2.0527 0 3.6919-1.6579 3.6845-3.6874-0.01-2.0296-1.6586-3.6561-3.7114-3.6561-1.6452 0-3.0467 1.0357-3.5308 2.5h-1.2959c-1.2263-3.9583-2.4528-7.9165-3.6795-11.875-0.3844-1.399-1.361-2.6562-3.013-2.6562zm45.521 0c-1.6521 0-2.6199 1.2573-2.9943 2.6563-1.1985 3.9583-2.3969 7.9166-3.5951 11.875h-1.3275c-0.4945-1.4643-1.8718-2.5-3.517-2.5-2.0528 0-3.6924 1.6266-3.6853 3.6562 0.01 2.0296 1.6579 3.6874 3.7105 3.6874 1.645 0 3.0151-1.067 3.4997-2.5312h15.898c0.4943 1.4642 1.903 2.5312 3.548 2.5312 2.0527 0 3.6927-1.6579 3.6863-3.6874-0.01-2.0296-1.6569-3.6562-3.7097-3.6562-1.6451 0-3.0472 1.0357-3.532 2.5h-1.2958c-1.2245-3.9583-2.4491-7.9166-3.6738-11.875-0.3837-1.399-1.3598-2.6563-3.0118-2.6563zm45.521-1e-4c-1.6521 0-2.6205 1.2573-2.9956 2.6563-1.2004 3.9583-2.4006 7.9166-3.6008 11.875h-1.3274c-0.4938-1.4643-1.8707-2.5-3.5158-2.5-2.0529 0-3.6932 1.6266-3.6872 3.6562 0.01 2.0296 1.6561 3.6875 3.7088 3.6875 1.645 0 3.0156-1.067 3.5009-2.5312h15.898c0.4935 1.4642 1.9017 2.5312 3.5467 2.5312 2.0527 0 3.6934-1.6579 3.688-3.6874-0.01-2.0296-1.6551-3.6562-3.7079-3.6562-1.6451 0-3.0477 1.0357-3.5332 2.5h-1.2958c-1.2226-3.9583-2.4453-7.9166-3.6681-11.875-0.383-1.399-1.3585-2.6563-3.0105-2.6563zm45.521 0c-1.6521 0-2.621 1.2573-2.9968 2.6563-1.2024 3.9583-2.4045 7.9166-3.6065 11.875h-1.3275c-0.4931-1.4643-1.8695-2.5-3.5146-2.5-2.0529 0-3.694 1.6266-3.6889 3.6562 0.01 2.0296 1.6543 3.6875 3.707 3.6875 1.645 0 3.0161-1.067 3.5021-2.5312h15.898c0.4928 1.4642 1.9005 2.5312 3.5455 2.5312 2.0527 0 3.6942-1.6579 3.6898-3.6875 0-2.0296-1.6533-3.6562-3.7062-3.6562-1.6451 0-3.0482 1.0357-3.5344 2.5h-1.2958c-1.2206-3.9583-2.4414-7.9166-3.6624-11.875-0.3823-1.399-1.3572-2.6563-3.0092-2.6563zm45.521 0c-1.6521 0-2.6216 1.2573-2.9981 2.6563-1.2042 3.9583-2.4083 7.9166-3.6122 11.875h-1.3275c-0.4924-1.4643-1.8683-2.5-3.5134-2.5-2.0528 0-3.6948 1.6266-3.6907 3.6562 0 2.0296 1.6526 3.6875 3.7053 3.6875 1.645 0 3.0166-1.067 3.5033-2.5312h15.898c0.4921 1.4642 1.8993 2.5312 3.5443 2.5312 2.0526 0 3.695-1.6579 3.6916-3.6875 0-2.0296-1.6516-3.6562-3.7044-3.6562-1.6452 0-3.0487 1.0357-3.5357 2.5h-1.2958c-1.2187-3.9583-2.4376-7.9166-3.6566-11.875-0.3817-1.399-1.356-2.6563-3.008-2.6563zm45.521-1e-4c-1.6521 0-2.6222 1.2573-2.9994 2.6563-1.2061 3.9583-2.4121 7.9166-3.6179 11.875h-1.3275c-0.4917-1.4643-1.8671-2.5-3.5122-2.5-2.0528 0-3.6955 1.6266-3.6924 3.6562 0 2.0296 1.6508 3.6875 3.7035 3.6875 1.645 0 3.0171-1.067 3.5045-2.5312h15.898c0.4914 1.4642 1.8981 2.5312 3.5431 2.5312 2.0526 0 3.6958-1.6579 3.6933-3.6875 0-2.0296-1.6498-3.6562-3.7026-3.6562-1.6452 0-3.0492 1.0357-3.5368 2.5h-1.2959c-1.2168-3.9583-2.4338-7.9166-3.6509-11.875-0.381-1.399-1.3547-2.6563-3.0067-2.6563zm45.521 0c-1.6521 0-2.6228 1.2573-3.0007 2.6563-1.208 3.9583-2.4159 7.9166-3.6236 11.875h-1.3275c-0.491-1.4643-1.8658-2.5-3.511-2.5-2.0528 0-3.6963 1.6266-3.6941 3.6562 0 2.0296 1.649 3.6875 3.7017 3.6875 1.645 0 3.0176-1.067 3.5057-2.5312h15.898c0.4907 1.4642 1.8968 2.5312 3.5418 2.5312 2.0527 0 3.6967-1.6579 3.6952-3.6875 0-2.0296-1.6481-3.6562-3.7009-3.6562-1.6451 0-3.0497 1.0357-3.538 2.5h-1.2959c-1.2149-3.9583-2.43-7.9166-3.6452-11.875-0.3803-1.399-1.3534-2.6563-3.0054-2.6563zm45.521 0c-1.6521 0-2.6234 1.2573-3.0019 2.6563-1.21 3.9583-2.4197 7.9166-3.6294 11.875h-1.3275c-0.4902-1.4643-1.8646-2.5-3.5097-2.5-2.0529 0-3.6972 1.6266-3.696 3.6562 0 2.0296 1.6473 3.6875 3.7 3.6875 1.6449 0 3.0181-1.067 3.5069-2.5312h15.898c0.49 1.4642 1.8956 2.5312 3.5406 2.5312 2.0527 0 3.6975-1.6579 3.6969-3.6875-5e-4 -2.0296-1.6463-3.6562-3.6991-3.6562-1.6451 0-3.0502 1.0357-3.5392 2.5h-1.2958c-1.2131-3.9583-2.4262-7.9167-3.6395-11.875-0.3797-1.399-1.3521-2.6563-3.0042-2.6563zm44.587-0.158c-1.3464 0.089-2.1089 1.3666-2.3954 2.776-0.6421 2.7531-1.3727 5.4982-2.1816 8.2295-0.3759 1.2279-0.7517 2.4559-1.1276 3.6838h-1.3274c-0.4896-1.4643-1.8635-2.5-3.5086-2.5-2.0529 0-3.6979 1.6266-3.6977 3.6562s1.6455 3.6875 3.6981 3.6875c1.645 0 3.0187-1.067 3.5082-2.5312h2.455c4.434 0.01 8.9108-0.3233 13.34-1.1167 0.2071-0.037 0.4141-0.075 0.621-0.1144 0.6697 1.155 2.0354 1.8756 3.5341 1.7693 0.2426-0.017 0.4889-0.056 0.7359-0.1191 1.1055-0.2806 2.0082-0.9801 2.5191-1.8451 0.5108-0.865 0.6256-1.8873 0.2872-2.844s-1.0419-1.6739-1.8691-2.1026-1.7843-0.5713-2.747-0.3264c-0.2151 0.055-0.4215 0.1265-0.6185 0.2138-1.2163 0.5391-2.0864 1.6665-2.2716 2.9834-0.4302 0.081-0.8611 0.1582-1.2926 0.2305-1.8639-3.6992-3.5051-7.473-4.9508-11.298-0.4699-1.3564-1.3643-2.5212-2.7107-2.432zm39.865-11.89c-1.5898 0.5441-2.0976 2.0441-1.9843 3.481 0.1872 4.1112 0.3914 8.2162 0.6125 12.315l-1.2548 0.4289c-0.9705-1.2124-2.6337-1.736-4.1936-1.2026-1.9464 0.6655-2.9285 2.7163-2.2074 4.6098 0.7211 1.8934 2.8558 2.912 4.7845 2.253 1.5455-0.5281 2.4648-1.9673 2.4184-3.4955l0.5958-0.2036 13.823-4.724 0.5659-0.1934c0.9417 1.2229 2.6105 1.7783 4.1561 1.2502 1.9286-0.659 2.9448-2.7555 2.2965-4.6755s-2.7279-2.9253-4.6744-2.2598c-1.5598 0.5333-2.5542 1.966-2.5366 3.5048l-1.2249 0.4187c-2.4496-3.3385-4.9162-6.6708-7.3998-9.9969-0.8307-1.1917-2.1868-2.054-3.7765-1.5099zm40.3-14.058c-0.4359 0.2511-0.6292 0.7039-0.6762 1.2723-0.047 0.5683 0.054 1.2507 0.2491 1.9289 1.0183 3.8767 1.646 7.8873 1.8383 11.99-0.429 0.1442-0.8615 0.2796-1.2972 0.4062-0.2097-0.2819-0.4537-0.5321-0.7214-0.7483-0.9103-0.7036-2.1482-0.9368-3.3569-0.5236-1.9464 0.6655-3.016 2.7482-2.4041 4.6815 0.612 1.9332 2.6575 2.9843 4.5861 2.3253 1.1976-0.4092 2.0529-1.3777 2.3932-2.5177 0.1266-0.3279 0.1983-0.6709 0.2131-1.0186 0.2217-0.065 0.4427-0.1326 0.6627-0.2021 5.1057-1.6111 9.755-4.3355 13.699-7.8482 0.1615-0.1438 0.3218-0.2889 0.4809-0.4354 0.7032 0.3536 1.532 0.4535 2.3515 0.2794 0.8195-0.1742 1.6279-0.6235 2.2572-1.3256 0.7854-0.8762 1.132-1.9669 1.0536-2.9636-0.079-0.9968-0.5768-1.896-1.4084-2.4911s-1.8281-0.7879-2.762-0.6721-1.8076 0.5388-2.4627 1.2681c-1.0498 1.169-1.2859 2.819-0.6357 4.2224-0.324 0.2982-0.6531 0.5908-0.9872 0.8773-3.5852-2.166-6.9181-4.6261-9.9465-7.3484-0.5212-0.4908-1.0952-0.9017-1.6383-1.1307-0.543-0.229-1.0526-0.277-1.4885-0.026zm10.99-23.821c0.1198 0.4933 0.505 0.8195 1.0426 1.0413 0.5377 0.2217 1.2269 0.3366 1.9373 0.3595 4.0345 0.2234 8.0863 0.8555 12.095 1.9143 0.021 0.4528 0.033 0.9061 0.036 1.3596-0.1771 0.062-0.348 0.1363-0.5119 0.2214-1.1878 0.6171-2.0046 1.7503-2.1448 3.1096-0.1 0.9652 0.1647 1.8809 0.6943 2.6408 0.5297 0.7599 1.3283 1.3642 2.3186 1.5773 0.9903 0.2132 1.9881-0.025 2.7796-0.6469 0.7915-0.6222 1.3707-1.6312 1.4953-2.8235 0.1755-1.6793-0.6134-3.1754-1.8039-3.8572-0.1648-0.093-0.3369-0.1726-0.515-0.2364 0-0.2305-0.01-0.4608-0.012-0.6911-0.1402-5.3418-1.4241-10.61-3.691-15.417-0.093-0.1968-0.1873-0.3929-0.2834-0.5881 0.5391-0.5619 0.8689-1.32 0.9305-2.1525 0.062-0.8325-0.1467-1.738-0.6505-2.5476-0.6285-1.0102-1.5883-1.6642-2.5727-1.8806-0.9844-0.2165-1.9883 9e-4 -2.7884 0.6236-0.8002 0.6227-1.2573 1.5164-1.4035 2.4353s0.016 1.8653 0.5324 2.6959c0.4136 0.6656 0.9949 1.1644 1.669 1.4842 0.6742 0.3198 1.442 0.4605 2.2092 0.3621 0.1951 0.3965 0.383 0.7965 0.5637 1.1998-3.1041 2.7489-6.4288 5.1591-9.9191 7.2009-0.6221 0.3447-1.1828 0.7632-1.5592 1.2082-0.3763 0.445-0.5684 0.9139-0.4486 1.4071zm-19.975-16.529c0.4924 0.019 0.9063-0.2616 1.2655-0.7167s0.6611-1.085 0.8808-1.7609c1.3375-3.8125 3.0837-7.5258 5.2087-11.085 0.4403 0.1052 0.8786 0.2186 1.3147 0.3402 0.045 0.772 0.3168 1.4986 0.7482 2.0999s1.0224 1.0781 1.7538 1.3615c0.9127 0.3536 1.8744 0.3374 2.7504 0.022 0.876-0.3155 1.6679-0.933 2.1293-1.8362 0.4614-0.9033 0.4874-1.93 0.093-2.856-0.3947-0.9261-1.2131-1.7458-2.3209-2.1748-0.8878-0.3438-1.8073-0.377-2.6055-0.1596-0.7983 0.2175-1.4746 0.6838-1.9275 1.3171-0.2208-0.062-0.4421-0.121-0.664-0.1786-3.0947-0.8031-6.2921-1.2244-9.5082-1.2289h-6.4485c-0.4895-1.4642-1.8949-2.5312-3.54-2.5312-2.0528 0-3.6981 1.6579-3.6981 3.6875-1e-4 2.0296 1.6452 3.6562 3.698 3.6562 1.6451 0 3.0505-1.0357 3.5401-2.5h1.2958c1.2116 3.9583 2.4232 7.9167 3.6348 11.875 0.2468 0.9107 0.7447 1.7613 1.5178 2.2442 0.2503 0.2563 0.5382 0.4111 0.882 0.4241zm-44.912-0.012c1.6519 0 2.6237-1.2573 3.0028-2.6563 1.2116-3.9583 2.4232-7.9167 3.6348-11.875h1.3275c0.4896 1.4643 1.8634 2.5 3.5085 2.5 2.0528 0 3.698-1.6266 3.698-3.6562s-1.6452-3.6875-3.698-3.6875c-1.6451 0-3.0189 1.067-3.5085 2.5312h-15.898c-0.4896-1.4642-1.8949-2.5312-3.54-2.5312-2.0528 0-3.6981 1.6579-3.6982 3.6875 0 2.0296 1.6453 3.6562 3.6981 3.6562 1.6451 0 3.0505-1.0357 3.54-2.5h1.2959c1.2116 3.9583 2.4232 7.9167 3.6348 11.875 0.3791 1.399 1.3508 2.6563 3.0026 2.6563zm-45.514 0c1.6519 0 2.6236-1.2573 3.0027-2.6563 1.2117-3.9583 2.4233-7.9167 3.6349-11.875h1.3275c0.4895 1.4643 1.8634 2.5 3.5084 2.5 2.0528 0 3.6981-1.6266 3.6981-3.6562s-1.6452-3.6875-3.698-3.6875c-1.6451 0-3.0189 1.067-3.5085 2.5312h-15.899c-0.4895-1.4642-1.8949-2.5312-3.54-2.5312-2.0528 0-3.6981 1.6579-3.6981 3.6875s1.6453 3.6562 3.6981 3.6562c1.6451 0 3.0505-1.0357 3.54-2.5h1.2959c1.2116 3.9583 2.4232 7.9167 3.6348 11.875 0.379 1.399 1.3508 2.6563 3.0026 2.6563zm-45.514 0c1.6518 0 2.6236-1.2573 3.0027-2.6563 1.2116-3.9583 2.4233-7.9167 3.6349-11.875h1.3275c0.4895 1.4643 1.8633 2.5 3.5084 2.5 2.0528 0 3.698-1.6266 3.698-3.6562 1e-4 -2.0296-1.6451-3.6875-3.6979-3.6875-1.6451 0-3.019 1.067-3.5085 2.5312h-15.899c-0.4895-1.4642-1.8949-2.5312-3.54-2.5312-2.0528 0-3.6981 1.6579-3.6981 3.6875s1.6453 3.6562 3.6981 3.6562c1.6451 0 3.0505-1.0357 3.54-2.5h1.2958c1.2116 3.9583 2.4232 7.9167 3.6349 11.875 0.379 1.399 1.3508 2.6563 3.0026 2.6563zm-45.514 0c1.6518 0 2.6236-1.2573 3.0027-2.6563 1.2116-3.9583 2.4232-7.9167 3.6349-11.875h1.3275c0.4895 1.4643 1.8633 2.5 3.5084 2.5 2.0528 0 3.698-1.6266 3.698-3.6562s-1.6452-3.6875-3.698-3.6875c-1.6451 0-3.0189 1.067-3.5084 2.5312h-15.899c-0.4895-1.4642-1.8949-2.5312-3.54-2.5312-2.0528 0-3.6981 1.6579-3.6981 3.6875s1.6452 3.6562 3.698 3.6562c1.6451 0 3.0505-1.0357 3.5401-2.5h1.2958c1.2116 3.9583 2.4232 7.9167 3.6348 11.875 0.3791 1.399 1.3509 2.6563 3.0027 2.6563zm-45.514 0c1.6519 0 2.6237-1.2573 3.0028-2.6563 1.2116-3.9583 2.4232-7.9167 3.6348-11.875h1.3275c0.4896 1.4643 1.8634 2.5 3.5085 2.5 2.0528 0 3.698-1.6266 3.698-3.6562s-1.6452-3.6875-3.698-3.6875c-1.6451 0-3.0189 1.067-3.5085 2.5312h-15.898c-0.4896-1.4642-1.8949-2.5312-3.54-2.5312-2.0528 0-3.6981 1.6579-3.6982 3.6875 0 2.0296 1.6453 3.6562 3.6981 3.6562 1.6451 0 3.0505-1.0357 3.54-2.5h1.2959c1.2116 3.9583 2.4232 7.9167 3.6348 11.875 0.3791 1.399 1.3509 2.6563 3.0026 2.6563zm-45.514 0c1.6519 0 2.6237-1.2573 3.0028-2.6563 1.2116-3.9583 2.4232-7.9167 3.6348-11.875h1.3275c0.4895 1.4643 1.8634 2.5 3.5085 2.5 2.0528 0 3.698-1.6266 3.698-3.6562s-1.6452-3.6875-3.698-3.6875c-1.6451 0-3.0189 1.067-3.5085 2.5312h-15.899c-0.4895-1.4642-1.8949-2.5312-3.54-2.5312-2.0528 0-3.6981 1.6579-3.6981 3.6875s1.6453 3.6562 3.6981 3.6562c1.6451 0 3.0505-1.0357 3.54-2.5h1.2959c1.2116 3.9583 2.4232 7.9167 3.6348 11.875 0.3791 1.399 1.3509 2.6563 3.0026 2.6563zm-45.514 0c1.6519 0 2.6237-1.2573 3.0028-2.6563 1.2116-3.9583 2.4232-7.9167 3.6348-11.875h1.3275c0.4895 1.4643 1.8633 2.5 3.5084 2.5 2.0528 0 3.698-1.6266 3.698-3.6562 1e-4 -2.0296-1.6451-3.6875-3.6979-3.6875-1.6451 0-3.019 1.067-3.5085 2.5312h-15.899c-0.4895-1.4642-1.8949-2.5312-3.54-2.5312-2.0528 0-3.6981 1.6579-3.6981 3.6875s1.6453 3.6562 3.6981 3.6562c1.6451 0 3.0505-1.0357 3.54-2.5h1.2958c1.2117 3.9583 2.4233 7.9167 3.6349 11.875 0.3791 1.399 1.3508 2.6563 3.0026 2.6563zm-45.514 0c1.6519 0 2.6237-1.2573 3.0027-2.6563 1.2117-3.9583 2.4233-7.9167 3.6349-11.875h1.3275c0.4895 1.4643 1.8633 2.5 3.5084 2.5 2.0528 0 3.698-1.6266 3.698-3.6562s-1.6452-3.6875-3.698-3.6875c-1.6451 0-3.0189 1.067-3.5084 2.5312h-15.899c-0.4895-1.4642-1.8949-2.5312-3.54-2.5312-2.0528 0-3.6981 1.6579-3.6981 3.6875s1.6453 3.6562 3.6981 3.6562c1.6451 0 3.0504-1.0357 3.54-2.5h1.2958c1.2116 3.9583 2.4233 7.9167 3.6349 11.875 0.3791 1.399 1.3508 2.6563 3.0026 2.6563zm-45.514 0c1.6519 0 2.6236-1.2573 3.0027-2.6563 1.2116-3.9583 2.4232-7.9167 3.6348-11.875h1.3275c0.4896 1.4643 1.8634 2.5 3.5085 2.5 2.0528 0 3.698-1.6266 3.698-3.6562s-1.6452-3.6875-3.698-3.6875c-1.6451 0-3.0189 1.067-3.5085 2.5312h-15.898c-0.4896-1.4642-1.895-2.5312-3.54-2.5312-2.0528 0-3.6981 1.6579-3.6982 3.6875 0 2.0296 1.6453 3.6562 3.6981 3.6562 1.6451 0 3.0505-1.0357 3.5401-2.5h1.2958c1.2116 3.9583 2.4232 7.9167 3.6349 11.875 0.379 1.399 1.3508 2.6563 3.0026 2.6563zm-45.514 0c1.6518 0 2.6236-1.2573 3.0027-2.6563 1.2116-3.9583 2.4232-7.9167 3.6348-11.875h1.3275c0.4896 1.4643 1.8634 2.5 3.5085 2.5 2.0528 0 3.698-1.6266 3.698-3.6562s-1.6452-3.6875-3.698-3.6875c-1.6451 0-3.0189 1.067-3.5085 2.5312h-15.899c-0.4895-1.4642-1.8949-2.5312-3.54-2.5312-2.0528 0-3.6981 1.6579-3.6981 3.6875s1.6453 3.6562 3.6981 3.6562c1.6451 0 3.0505-1.0357 3.54-2.5h1.2959c1.2116 3.9583 2.4232 7.9167 3.6348 11.875 0.3791 1.399 1.3509 2.6563 3.0027 2.6563zm-45.514 0c1.6518 0 2.6236-1.2573 3.0027-2.6563 1.2116-3.9583 2.4232-7.9167 3.6348-11.875h1.3275c0.4895 1.4643 1.8634 2.5 3.5084 2.5 2.0528 0 3.698-1.6266 3.698-3.6562 1e-4 -2.0296-1.6451-3.6875-3.6979-3.6875-1.6451 0-3.019 1.067-3.5085 2.5312h-15.899c-0.4895-1.4642-1.8949-2.5312-3.54-2.5312-2.0528 0-3.6981 1.6579-3.6981 3.6875s1.6453 3.6562 3.6981 3.6562c1.6451 0 3.0505-1.0357 3.54-2.5h1.2959c1.2116 3.9583 2.4232 7.9167 3.6348 11.875 0.3791 1.399 1.3509 2.6563 3.0027 2.6563zm-45.514 0c1.6519 0 2.6237-1.2573 3.0028-2.6563 1.2116-3.9583 2.4232-7.9167 3.6348-11.875h1.3275c0.4895 1.4643 1.8633 2.5 3.5084 2.5 2.0528 0 3.698-1.6266 3.698-3.6562s-1.6452-3.6875-3.698-3.6875c-1.6451 0-3.0189 1.067-3.5084 2.5312h-15.899c-0.4895-1.4642-1.8949-2.5312-3.54-2.5312-2.0528 0-3.6981 1.6579-3.6981 3.6875s1.6453 3.6562 3.6981 3.6562c1.6451 0 3.0504-1.0357 3.54-2.5h1.2958c1.2117 3.9583 2.4233 7.9167 3.6349 11.875 0.3791 1.399 1.3509 2.6563 3.0026 2.6563z" fill="#1f241c"/>
   <path d="m686.02 883.55c-0.7665-2e-4 -1.547 0.011-2.3125 0.031-192.48 0.7889-385.06-0.5072-577.47 0.7188-23.741 3.6534-36.732 37.304-19.344 54.906 13.499 14.491 33.844 18.994 50.562 28.625 25.27 12.096 53.126 20.207 81.375 17.75 135.05-0.479 270.14 1.2705 405.16-0.875 26.815-5.6285 51.749-17.827 78.062-25.125 16.896-6.8818 28.469-25.475 24.469-43.625-3.0884-18.093-19.794-32.436-38.219-32.344-0.7649-0.042-1.5148-0.062-2.2813-0.062zm-573.09 4.25h575.03c19.395 3e-4 35.125 15.73 35.125 35.125 0 16.179-10.956 29.776-25.844 33.844l-62.344 21.312s-7.6994 3.5625-21.812 3.5625h-415.75c-30.617 0.2692-98.188-37.312-98.188-37.312v-0.031c-9.591-4.9899-16.156-15.004-16.156-26.562 0-16.536 13.402-29.938 29.938-29.938z" fill="#1f241c"/>
   <path d="m723.07 922.96c0 19.395-15.723 35.12-35.12 35.12-19.395 0-35.12-15.723-35.12-35.12 0-19.395 15.723-35.12 35.12-35.12 19.395 0 35.12 15.723 35.12 35.12z" fill="#1f241c" opacity=".10976" stroke-width=".99998"/>
   <path d="m657.52 905.36c-3.1984 5.5397-4.7268 11.586-4.7218 17.553h3.4304c-0.014-0.601 0.092-1.2224 0.4149-1.7812 0.9383-1.6251 3.028-2.185 4.6531-1.2468 1.113 0.6426 1.7067 1.8268 1.6804 3.027l24.935-1e-3 -12.478-21.638c-1.0178 0.59-2.3115 0.6502-3.4034 0.02-1.625-0.9382-2.185-3.028-1.2467-4.653 0.3078-0.5331 0.7527-0.9389 1.2497-1.227l-1.6734-2.9144c-5.1706 2.9794-9.6424 7.3261-12.841 12.866zm3.3829 1.9531c1.7795-3.0822 5.7115-4.1358 8.7938-2.3563 3.0822 1.7795 4.1629 5.7272 2.3833 8.8094-1.7795 3.0822-5.7386 4.1202-8.8208 2.3407-3.0823-1.7795-4.1358-5.7115-2.3563-8.7938zm-3.3829 33.15c3.1983 5.5397 7.6702 9.8864 12.841 12.866l1.7118-2.9728c-0.5273-0.2888-1.0125-0.6911-1.3351-1.2499-0.9382-1.6251-0.3783-3.7148 1.2468-4.653 1.113-0.6426 2.4354-0.5647 3.4616 0.058l12.467-21.595-24.978-0.013c0 1.1764-0.5927 2.3268-1.6846 2.9572-1.6251 0.9383-3.7148 0.3783-4.653-1.2468-0.3079-0.5331-0.4368-1.1214-0.4378-1.6958l-3.3607-0.01c-0.01 5.9675 1.5234 12.014 4.7218 17.553zm3.3829-1.9531c-1.7795-3.0822-0.726-7.0142 2.3563-8.7938 3.0822-1.7795 7.0413-0.7416 8.8208 2.3407 1.7796 3.0822 0.6989 7.0299-2.3833 8.8094-3.0823 1.7795-7.0143 0.726-8.7938-2.3563zm27.017 19.505c6.3968 0 12.397-1.6994 17.562-4.6875l-1.7186-2.9688c-0.5138 0.3122-1.1048 0.5313-1.75 0.5313-1.8765 0-3.4063-1.5298-3.4063-3.4062 0-1.2852 0.7287-2.3915 1.7813-2.9688l-12.468-21.594-12.5 21.625c1.0198 0.5864 1.7188 1.6767 1.7188 2.9375 0 1.8765-1.5298 3.4063-3.4063 3.4062-0.6156 0-1.1895-0.1825-1.6875-0.4688l-1.6872 2.9064c5.1655 2.9881 11.166 4.6875 17.562 4.6875zm0-3.9063c-3.559 0-6.4375-2.8784-6.4375-6.4375s2.8785-6.4688 6.4375-6.4688c3.5591 0 6.4375 2.9097 6.4375 6.4688s-2.8784 6.4375-6.4375 6.4375zm30.4-13.645c3.1984-5.5397 4.7268-11.586 4.7218-17.553h-3.4304c0.014 0.6011-0.092 1.2224-0.415 1.7812-0.9382 1.6251-3.0279 2.185-4.653 1.2468-1.113-0.6426-1.7067-1.8268-1.6804-3.027l-24.935 1e-3 12.478 21.638c1.0178-0.5899 2.3114-0.6501 3.4033-0.02 1.6251 0.9383 2.185 3.028 1.2468 4.653-0.3078 0.5332-0.7528 0.939-1.2497 1.227l1.6734 2.9144c5.1705-2.9794 9.6424-7.3261 12.841-12.866zm-3.3829-1.9531c-1.7795 3.0822-5.7116 4.1358-8.7938 2.3563s-4.1629-5.7272-2.3834-8.8094c1.7796-3.0822 5.7387-4.1202 8.8209-2.3407s4.1358 5.7115 2.3563 8.7938zm3.3829-33.15c-3.1984-5.5397-7.6702-9.8864-12.841-12.866l-1.7117 2.9729c0.5273 0.2888 1.0125 0.6912 1.3351 1.2499 0.9382 1.6251 0.3783 3.7148-1.2468 4.653-1.113 0.6426-2.4354 0.5647-3.4616-0.058l-12.466 21.595 24.978 0.013c0-1.1764 0.5927-2.3268 1.6846-2.9572 1.6251-0.9382 3.7148-0.3783 4.653 1.2468 0.3078 0.5332 0.4368 1.1214 0.4378 1.6958l3.3607 0.01c0.01-5.9675-1.5234-12.014-4.7218-17.553zm-3.3829 1.9531c1.7795 3.0822 0.7259 7.0142-2.3563 8.7938-3.0822 1.7795-7.0413 0.7416-8.8209-2.3407-1.7795-3.0822-0.6988-7.0299 2.3834-8.8094s7.0143-0.7259 8.7938 2.3563zm-27.017-19.505c-6.3967 0-12.397 1.6994-17.562 4.6875l1.7188 2.9688c0.5138-0.3122 1.1048-0.5312 1.75-0.5312 1.8765 0 3.4062 1.5298 3.4062 3.4062 0 1.2852-0.7286 2.3915-1.7812 2.9688l12.469 21.594 12.5-21.625c-1.0198-0.5864-1.7187-1.6767-1.7187-2.9375 0-1.8765 1.5298-3.4062 3.4062-3.4062 0.6157 0 1.1896 0.1824 1.6875 0.4687l1.6875-2.9062c-5.1655-2.9882-11.166-4.6875-17.562-4.6875zm0 3.9062c3.5591 0 6.4375 2.8784 6.4375 6.4375s-2.8784 6.4688-6.4375 6.4688c-3.559 0-6.4375-2.9097-6.4375-6.4688s2.8785-6.4375 6.4375-6.4375z" fill="#1f241c"/>
   <g transform="translate(145.32 1523)" fill="#1f241c">
    <path d="m52.031-626.62c-21.165 0-38.312 17.147-38.312 38.312s17.147 38.344 38.312 38.344 38.312-17.178 38.312-38.344c0-21.165-17.147-38.312-38.312-38.312zm0 4.6562c18.592 0 33.656 15.064 33.656 33.656s-15.064 33.688-33.656 33.688-33.656-15.096-33.656-33.688 15.064-33.656 33.656-33.656z"/>
    <path transform="matrix(5.9726,0,0,5.9726,-259.8,2923.2)" d="m60.067-587.94c0 4.3392-3.5176 7.8568-7.8568 7.8568s-7.8568-3.5176-7.8568-7.8568 3.5176-7.8568 7.8568-7.8568 7.8568 3.5176 7.8568 7.8568z" stroke-width=".16743"/>
    <path d="m52.031-621.97c-3.0191 0-5.9348 0.41084-8.7188 1.1562l6.688 24.93c0.64752-0.17268 1.3293-0.28125 2.0312-0.28125 0.70193 0 1.3837 0.10857 2.0312 0.28125l6.6875-24.938c-2.784-0.74541-5.6997-1.1562-8.7188-1.1562zm0 3.3125c1.9143 0 3.4688 1.5545 3.4688 3.4688s-1.5545 3.4688-3.4688 3.4688-3.4688-1.5545-3.4688-3.4688 1.5545-3.4688 3.4688-3.4688zm0 14.344c0.87502 0 1.5938 0.71874 1.5938 1.5938 0 0.87502-0.71873 1.5625-1.5938 1.5625-0.87502 0-1.5938-0.68748-1.5938-1.5625 0-0.87501 0.71873-1.5938 1.5938-1.5938z"/>
    <path d="m35.198-617.46c-2.6146 1.5095-4.9342 3.3232-6.9725 5.3607l18.26 18.253c0.47443-0.4733 1.0106-0.90823 1.6185-1.2592 0.60789-0.35097 1.2526-0.59784 1.8997-0.77206l-6.6772-24.94c-2.7837 0.74645-5.5142 1.8485-8.1288 3.358zm1.6562 2.8687c1.6578-0.95714 3.7813-0.38816 4.7384 1.2696 0.95714 1.6578 0.38816 3.7813-1.2696 4.7384-1.6578 0.95714-3.7813 0.38816-4.7384-1.2696-0.95714-1.6578-0.38816-3.7813 1.2697-4.7384zm7.1719 12.422c0.75779-0.43751 1.7396-0.17443 2.1771 0.58335 0.43751 0.75779 0.15881 1.7125-0.59898 2.15-0.75779 0.43751-1.724 0.2015-2.1615-0.55629-0.4375-0.75778-0.17444-1.7396 0.58335-2.1771z"/>
    <path d="m22.875-605.14c-1.5095 2.6146-2.6116 5.3451-3.358 8.1288l24.94 6.6772c0.17422-0.6471 0.42109-1.2918 0.77206-1.8997 0.35096-0.6079 0.78589-1.1441 1.2592-1.6185l-18.253-18.26c-2.0375 2.0383-3.8512 4.3579-5.3607 6.9725zm2.8687 1.6562c0.95714-1.6578 3.0806-2.2268 4.7384-1.2696 1.6578 0.95713 2.2268 3.0806 1.2697 4.7384-0.95714 1.6578-3.0806 2.2268-4.7384 1.2696-1.6578-0.95714-2.2268-3.0806-1.2696-4.7384zm12.422 7.1719c0.43751-0.75778 1.4193-1.0209 2.1771-0.58335 0.75779 0.43751 0.9938 1.4037 0.55629 2.1615-0.43751 0.75778-1.3922 1.0365-2.15 0.59897-0.75778-0.4375-1.0209-1.4193-0.58335-2.1771z"/>
    <path d="m18.365-588.3c-5e-6 3.0191 0.41083 5.9348 1.1562 8.7187l24.937-6.6875c-0.17267-0.64752-0.28125-1.3293-0.28124-2.0312-7e-6 -0.70194 0.10857-1.3837 0.28125-2.0312l-24.938-6.6875c-0.7454 2.784-1.1562 5.6997-1.1562 8.7188zm3.3125 0c0-1.9143 1.5545-3.4688 3.4687-3.4688 1.9143-1e-5 3.4688 1.5545 3.4688 3.4688s-1.5545 3.4688-3.4688 3.4688c-1.9143-1e-5 -3.4688-1.5545-3.4687-3.4688zm14.344-1e-5c3e-6 -0.87501 0.71874-1.5938 1.5938-1.5938 0.87502 0 1.5625 0.71874 1.5625 1.5938-4e-6 0.87501-0.68748 1.5937-1.5625 1.5937-0.87501 0-1.5937-0.71873-1.5937-1.5938z"/>
    <path d="m22.875-571.47c1.5095 2.6146 3.3232 4.9342 5.3607 6.9725l18.253-18.26c-0.4733-0.47443-0.90823-1.0106-1.2592-1.6185-0.35098-0.60789-0.59784-1.2526-0.77206-1.8997l-24.94 6.6772c0.74645 2.7837 1.8485 5.5142 3.358 8.1288zm2.8687-1.6562c-0.95714-1.6578-0.38816-3.7813 1.2696-4.7384 1.6578-0.95714 3.7813-0.38816 4.7384 1.2696 0.95714 1.6578 0.38816 3.7813-1.2697 4.7384-1.6578 0.95713-3.7813 0.38816-4.7384-1.2696zm12.422-7.1719c-0.4375-0.75778-0.17443-1.7396 0.58335-2.1771 0.75779-0.43751 1.7125-0.1588 2.15 0.59898 0.4375 0.75779 0.20149 1.724-0.5563 2.1615-0.75778 0.4375-1.7396 0.17443-2.1771-0.58336z"/>
    <path d="m35.198-559.15c2.6146 1.5096 5.3451 2.6116 8.1288 3.358l6.6772-24.94c-0.6471-0.17422-1.2919-0.42109-1.8997-0.77206-0.6079-0.35096-1.1441-0.78589-1.6185-1.2592l-18.26 18.253c2.0383 2.0375 4.3579 3.8512 6.9725 5.3607zm1.6562-2.8687c-1.6578-0.95714-2.2268-3.0806-1.2697-4.7384 0.95713-1.6578 3.0806-2.2268 4.7384-1.2696 1.6578 0.95713 2.2268 3.0806 1.2696 4.7384-0.95714 1.6578-3.0806 2.2268-4.7384 1.2696zm7.1719-12.422c-0.75778-0.4375-1.0209-1.4193-0.58335-2.1771 0.43751-0.75779 1.4037-0.99379 2.1615-0.55629 0.75778 0.43752 1.0365 1.3923 0.59897 2.15-0.43751 0.75777-1.4193 1.0208-2.1771 0.58334z"/>
    <path d="m52.031-554.64c3.0191 1e-5 5.9348-0.41083 8.7187-1.1562l-6.6875-24.937c-0.64752 0.17267-1.3293 0.28125-2.0312 0.28124-0.70194 1e-5 -1.3837-0.10857-2.0312-0.28124l-6.6875 24.938c2.784 0.7454 5.6997 1.1562 8.7188 1.1562zm0-3.3125c-1.9143 0-3.4688-1.5545-3.4688-3.4688-5e-6 -1.9143 1.5545-3.4688 3.4688-3.4688s3.4688 1.5545 3.4687 3.4688c-1.2e-5 1.9143-1.5545 3.4688-3.4687 3.4688zm-1.3e-5 -14.344c-0.875 0-1.5937-0.71873-1.5937-1.5938 0-0.87502 0.71874-1.5625 1.5938-1.5625 0.87502 1e-5 1.5938 0.68749 1.5938 1.5625-6e-6 0.875-0.71874 1.5937-1.5938 1.5937z"/>
    <path d="m68.864-559.15c2.6146-1.5095 4.9342-3.3232 6.9725-5.3607l-18.26-18.253c-0.47443 0.4733-1.0106 0.90823-1.6185 1.2592-0.60789 0.35097-1.2526 0.59784-1.8997 0.77206l6.6772 24.94c2.7837-0.74646 5.5142-1.8485 8.1288-3.358zm-1.6562-2.8687c-1.6578 0.95714-3.7813 0.38816-4.7384-1.2696-0.95714-1.6578-0.38816-3.7813 1.2696-4.7384 1.6578-0.95714 3.7813-0.38816 4.7384 1.2696 0.95712 1.6578 0.38816 3.7813-1.2696 4.7384zm-7.1719-12.422c-0.75778 0.43751-1.7396 0.17444-2.1771-0.58335-0.43751-0.75779-0.1588-1.7125 0.59898-2.15 0.7578-0.4375 1.724-0.20149 2.1615 0.55629s0.17443 1.7396-0.58336 2.1771z"/>
    <path d="m81.187-571.47c1.5095-2.6146 2.6116-5.3451 3.358-8.1288l-24.94-6.6772c-0.17422 0.64711-0.42109 1.2918-0.77206 1.8997-0.35096 0.60789-0.78589 1.1441-1.2592 1.6185l18.253 18.26c2.0375-2.0383 3.8512-4.3579 5.3607-6.9726zm-2.8687-1.6562c-0.95714 1.6578-3.0806 2.2268-4.7384 1.2696-1.6578-0.95714-2.2268-3.0806-1.2697-4.7384 0.95713-1.6578 3.0806-2.2268 4.7384-1.2696 1.6578 0.95714 2.2268 3.0806 1.2697 4.7384zm-12.422-7.1719c-0.4375 0.75778-1.4193 1.0209-2.1771 0.58335-0.75779-0.43751-0.9938-1.4037-0.55629-2.1615 0.43752-0.75778 1.3923-1.0365 2.15-0.59898 0.75777 0.43751 1.0209 1.4193 0.58334 2.1771z"/>
    <path d="m85.698-588.3c3e-6 -3.0191-0.41084-5.9348-1.1563-8.7187l-24.937 6.6875c0.17268 0.64752 0.28125 1.3293 0.28125 2.0312 3e-6 0.70193-0.10857 1.3837-0.28124 2.0312l24.938 6.6875c0.7454-2.784 1.1562-5.6997 1.1562-8.7188zm-3.3125 0c0 1.9143-1.5545 3.4688-3.4688 3.4688s-3.4688-1.5545-3.4688-3.4688c-4e-6 -1.9143 1.5545-3.4688 3.4688-3.4688 1.9143 1e-5 3.4688 1.5545 3.4688 3.4688zm-14.344 1e-5c4e-6 0.87501-0.71872 1.5937-1.5937 1.5938-0.87502 0-1.5625-0.71875-1.5625-1.5938 1.3e-5 -0.87501 0.68749-1.5937 1.5625-1.5938 0.875 1e-5 1.5937 0.71874 1.5937 1.5938z"/>
    <path d="m81.187-605.14c-1.5095-2.6146-3.3232-4.9342-5.3607-6.9725l-18.253 18.26c0.4733 0.47444 0.90823 1.0106 1.2592 1.6185 0.35097 0.60789 0.59784 1.2526 0.77206 1.8997l24.94-6.6772c-0.74646-2.7837-1.8485-5.5142-3.358-8.1288zm-2.8687 1.6562c0.95714 1.6578 0.38816 3.7813-1.2697 4.7384-1.6578 0.95713-3.7813 0.38816-4.7384-1.2697-0.95714-1.6578-0.38816-3.7813 1.2696-4.7384 1.6578-0.95712 3.7813-0.38815 4.7384 1.2696zm-12.422 7.1719c0.43751 0.75778 0.17444 1.7396-0.58335 2.1771-0.75779 0.43751-1.7125 0.1588-2.15-0.59898-0.43749-0.75779-0.20148-1.724 0.55629-2.1615 0.75778-0.4375 1.7396-0.17443 2.1771 0.58336z"/>
    <path d="m68.864-617.46c-2.6146-1.5095-5.3451-2.6116-8.1288-3.358l-6.6772 24.94c0.64711 0.17422 1.2918 0.42109 1.8997 0.77206 0.60789 0.35096 1.1441 0.78588 1.6185 1.2592l18.26-18.253c-2.0383-2.0375-4.3579-3.8512-6.9725-5.3607zm-1.6563 2.8687c1.6578 0.95715 2.2268 3.0806 1.2697 4.7384-0.95714 1.6578-3.0806 2.2268-4.7384 1.2696-1.6578-0.95713-2.2268-3.0806-1.2697-4.7384 0.95714-1.6578 3.0806-2.2268 4.7384-1.2697zm-7.1719 12.422c0.75778 0.4375 1.0209 1.4193 0.58335 2.1771-0.43751 0.75779-1.4037 0.99379-2.1615 0.55629-0.75778-0.43752-1.0365-1.3923-0.59898-2.15 0.43751-0.75777 1.4193-1.0208 2.1771-0.58334z"/>
    <path transform="translate(-.17921 -.35843)" d="m60.067-587.94c0 4.3392-3.5176 7.8568-7.8568 7.8568s-7.8568-3.5176-7.8568-7.8568 3.5176-7.8568 7.8568-7.8568 7.8568 3.5176 7.8568 7.8568z"/>
   </g>
   <path d="m142.92 917.7c0 16.536-13.405 29.941-29.941 29.941s-29.941-13.405-29.941-29.941 13.405-29.941 29.941-29.941 29.941 13.405 29.941 29.941z" fill="#1f241c" stroke-width=".99999"/>
   <g transform="matrix(.95669 0 0 .95669 143.92 1496.8)" fill="#1f241c">
    <path transform="matrix(3.1935,0,0,3.1935,-199.1,1272.3)" d="m60.067-587.94c0 4.3392-3.5176 7.8568-7.8568 7.8568s-7.8568-3.5176-7.8568-7.8568 3.5176-7.8568 7.8568-7.8568 7.8568 3.5176 7.8568 7.8568z" stroke-width=".32731"/>
    <path transform="matrix(.40083 0 0 .40083 -53.303 -388.18)" d="m60.067-587.94c0 4.3392-3.5176 7.8568-7.8568 7.8568s-7.8568-3.5176-7.8568-7.8568 3.5176-7.8568 7.8568-7.8568 7.8568 3.5176 7.8568 7.8568zm-7.8568-16.28c-5.6216 0-11.033 0.71528-16.216 2.105l11.149 41.632c1.6241-0.43579 3.306-0.70166 5.0675-0.70166 1.7445 0 3.4576 0.19604 5.0675 0.6237l11.149-41.554c-5.1657-1.3797-10.616-2.105-16.216-2.105z" stroke-width="2.6077"/>
    <path d="m-38.931-622.94c0.86966 1.5063 0.35356 3.4324-1.1527 4.302-1.5063 0.86966-3.4324 0.35356-4.302-1.1527-0.86965-1.5063-0.35356-3.4324 1.1527-4.302 1.5063-0.86966 3.4324-0.35357 4.302 1.1527zm-5.9901-4.0766c-1.9514 1.1267-3.6866 2.4595-5.2073 3.9807l12.214 12.217c0.47642-0.47677 1.007-0.90615 1.6185-1.2592 0.60559-0.34964 1.2395-0.62491 1.8841-0.79912l-4.4581-16.659c-2.0697 0.55635-4.1069 1.3968-6.051 2.5193z" stroke-width="1.0453"/>
    <path d="m-46.879-617.29c1.5063 0.86966 2.0224 2.7957 1.1527 4.302-0.86965 1.5063-2.7957 2.0224-4.302 1.1527-1.5063-0.86966-2.0224-2.7957-1.1527-4.302 0.86965-1.5063 2.7957-2.0224 4.302-1.1527zm-7.2259-0.53536c-1.1267 1.9514-1.9629 3.9733-2.5193 6.051l16.686 4.4737c0.17421-0.65111 0.419-1.2882 0.77205-1.8998 0.34964-0.60559 0.76102-1.161 1.2321-1.6341l-12.19-12.198c-1.5142 1.5167-2.8582 3.2631-3.9807 5.2073z" stroke-width="1.0453"/>
    <path d="m-50.941-608.43c1.7393 0 3.1493 1.41 3.1493 3.1493 4e-6 1.7393-1.41 3.1493-3.1493 3.1493-1.7393-1e-5 -3.1493-1.41-3.1493-3.1493-5e-6 -1.7393 1.41-3.1493 3.1493-3.1493zm-6.5255 3.1493c0 2.2533 0.28671 4.4225 0.84375 6.5l16.688-4.4687c-0.17468-0.65098-0.28126-1.3252-0.28126-2.0313-2e-6 -0.69927 0.07858-1.3859 0.25-2.0312l-16.656-4.4688c-0.55304 2.0706-0.84375 4.2551-0.84375 6.5z" stroke-width="1.0453"/>
    <path d="m-50.029-598.73c1.5063-0.86966 3.4324-0.35357 4.302 1.1527 0.86966 1.5063 0.35356 3.4324-1.1527 4.302-1.5063 0.86965-3.4324 0.35357-4.302-1.1527-0.86966-1.5063-0.35358-3.4324 1.1527-4.302zm-4.0766 5.9901c1.1267 1.9514 2.4595 3.6866 3.9807 5.2073l12.217-12.214c-0.47677-0.47642-0.90615-1.007-1.2592-1.6185-0.34964-0.60558-0.62491-1.2395-0.79911-1.8841l-16.659 4.4581c0.55635 2.0697 1.3968 4.1069 2.5193 6.051z" stroke-width="1.0453"/>
    <path d="m-44.386-590.78c0.86966-1.5063 2.7957-2.0224 4.302-1.1527 1.5063 0.86967 2.0224 2.7957 1.1527 4.302-0.86966 1.5063-2.7957 2.0224-4.302 1.1527-1.5063-0.86965-2.0224-2.7957-1.1527-4.302zm-0.53537 7.2258c1.9514 1.1267 3.9733 1.9629 6.051 2.5193l4.4737-16.686c-0.65111-0.1742-1.2882-0.419-1.8998-0.77206-0.60558-0.34963-1.161-0.76101-1.6341-1.2321l-12.198 12.19c1.5167 1.5143 3.2631 2.8583 5.2073 3.9807z" stroke-width="1.0453"/>
    <path d="m-35.524-586.72c-6e-6 -1.7393 1.41-3.1493 3.1493-3.1493 1.7393 1e-5 3.1493 1.41 3.1493 3.1493-1.1e-5 1.7393-1.41 3.1493-3.1493 3.1493s-3.1493-1.41-3.1493-3.1493zm3.1493 6.5255c2.2533 0 4.4225-0.28671 6.5-0.84376l-4.4687-16.688c-0.65097 0.17469-1.3252 0.28126-2.0313 0.28125-0.69927 1e-5 -1.3859-0.0786-2.0312-0.24999l-4.4688 16.656c2.0706 0.55305 4.2551 0.84376 6.5 0.84376z" stroke-width="1.0453"/>
    <path d="m-25.819-587.63c-0.86966-1.5063-0.35357-3.4324 1.1527-4.302 1.5063-0.86966 3.4324-0.35356 4.302 1.1527 0.86964 1.5063 0.35356 3.4324-1.1527 4.302-1.5063 0.86966-3.4324 0.35358-4.302-1.1527zm5.9901 4.0766c1.9514-1.1267 3.6866-2.4595 5.2073-3.9807l-12.214-12.217c-0.47642 0.47677-1.007 0.90615-1.6185 1.2592-0.60558 0.34964-1.2395 0.62489-1.8841 0.79912l4.4581 16.659c2.0697-0.55635 4.1069-1.3968 6.051-2.5193z" stroke-width="1.0453"/>
    <path d="m-17.871-593.27c-1.5063-0.86965-2.0224-2.7957-1.1527-4.302 0.86967-1.5063 2.7957-2.0224 4.302-1.1527 1.5063 0.86966 2.0224 2.7957 1.1527 4.302-0.86965 1.5063-2.7957 2.0224-4.302 1.1527zm7.2259 0.53538c1.1267-1.9514 1.9629-3.9733 2.5193-6.051l-16.686-4.4737c-0.1742 0.6511-0.419 1.2882-0.77206 1.8998-0.34963 0.60559-0.76104 1.1609-1.2321 1.6341l12.19 12.198c1.5143-1.5167 2.8583-3.2631 3.9807-5.2073z" stroke-width="1.0453"/>
    <path d="m-13.809-602.13c-1.7393 1e-5 -3.1493-1.41-3.1493-3.1493 8e-6 -1.7393 1.41-3.1493 3.1493-3.1493 1.7393 1e-5 3.1493 1.41 3.1493 3.1493 3e-6 1.7393-1.41 3.1493-3.1493 3.1493zm6.5255-3.1493c-7.9e-6 -2.2533-0.28671-4.4225-0.84376-6.5l-16.687 4.4687c0.17469 0.65097 0.28125 1.3251 0.28125 2.0313 1e-5 0.69927-0.07861 1.3859-0.24999 2.0312l16.656 4.4688c0.55305-2.0706 0.84376-4.2551 0.84376-6.5z" stroke-width="1.0453"/>
    <path d="m-14.721-611.84c-1.5063 0.86967-3.4324 0.35358-4.302-1.1527-0.86966-1.5063-0.35356-3.4324 1.1527-4.302 1.5063-0.86965 3.4324-0.35356 4.302 1.1527 0.86966 1.5063 0.35357 3.4324-1.1527 4.302zm4.0766-5.9901c-1.1267-1.9514-2.4595-3.6866-3.9807-5.2073l-12.217 12.214c0.47677 0.47641 0.90614 1.007 1.2592 1.6185 0.34964 0.60558 0.62488 1.2396 0.79912 1.8841l16.659-4.458c-0.55634-2.0697-1.3968-4.1069-2.5193-6.051z" stroke-width="1.0453"/>
    <path d="m-20.364-619.79c-0.86965 1.5063-2.7957 2.0224-4.302 1.1527-1.5063-0.86967-2.0224-2.7957-1.1527-4.302 0.86966-1.5063 2.7957-2.0224 4.302-1.1527 1.5063 0.86965 2.0224 2.7957 1.1527 4.302zm0.53538-7.2259c-1.9514-1.1266-3.9733-1.9629-6.051-2.5193l-4.4737 16.686c0.6511 0.1742 1.2882 0.419 1.8997 0.77206 0.60559 0.34963 1.1609 0.76104 1.6341 1.2321l12.198-12.19c-1.5167-1.5143-3.2631-2.8583-5.2073-3.9807z" stroke-width="1.0453"/>
   </g>
   <path d="m120.79 917.78c0 4.3392-3.5176 7.8568-7.8568 7.8568s-7.8568-3.5176-7.8568-7.8568 3.5176-7.8568 7.8568-7.8568 7.8568 3.5176 7.8568 7.8568z" fill="#1f241c"/>
   <path d="m698.18 922.93c0 5.6376-4.5701 10.208-10.208 10.208-5.6376 0-10.208-4.5702-10.208-10.208 0-5.6376 4.5701-10.208 10.208-10.208 5.6376 0 10.208 4.5701 10.208 10.208z" fill="#1f241c"/>
   <path d="m694.76 922.91c0 3.757-3.0457 6.8029-6.803 6.8029-3.757 0-6.8029-3.0456-6.8029-6.8029 0-3.757 3.0457-6.8029 6.8029-6.8029 3.7571 0 6.803 3.0456 6.803 6.8029z" fill="#1f241c" stroke-width=".99999"/>
   <path d="m112.92 886.63c-3.1402 0-6.2662 0.4976-9.2529 1.4352l-0.4934-1.5709c3.1418-0.9859 6.4322-1.507 9.7463-1.5117zm-14.082 3.3991c-2.7934 1.413-5.3781 3.2392-7.6291 5.4272l-1.1487-1.1805c2.3769-2.307 5.0967-4.2295 8.0347-5.716zm-11.041 9.3794c-1.8372 2.5366-3.2885 5.3483-4.3023 8.31l-1.5578-0.5333c1.066-3.1151 2.5922-6.0708 4.5271-8.742zm-5.5782 13.365c-0.2715 1.6402-0.4117 3.3032-0.4127 4.9701 0 1.4754 0.1164 2.9443 0.3363 4.3952l-1.626 0.245c-0.2316-1.5297-0.3533-3.0803-0.3577-4.6402 0-1.7592 0.1505-3.5118 0.4363-5.239zm1.1368 14.425c0.9794 2.9659 2.3987 5.7866 4.1876 8.3486l-1.36 0.9367c-1.8781-2.6903-3.3658-5.652-4.393-8.7718zm7.5006 12.361c2.1782 2.2395 4.687 4.1574 7.4563 5.6404l-0.7944 1.4426c-2.9226-1.5714-5.5641-3.5907-7.8543-5.9443zm11.802 8.0259c2.3214 1.242 4.6523 2.4645 6.9902 3.672 0.3469 0.1792 0.6941 0.3581 1.0414 0.5367l-0.7533 1.4651c-0.3482-0.179-0.6963-0.3584-1.0441-0.5381-2.344-1.2106-4.682-2.4369-7.0113-3.6831zm12.521 6.4941c2.6988 1.3599 5.408 2.6996 8.1279 4.0175l-0.7183 1.4825c-2.7279-1.3218-5.4447-2.6653-8.1509-4.0288zm12.673 6.1942c2.7321 1.2931 5.4751 2.5635 8.2296 3.8093l-0.6789 1.501c-2.7634-1.2499-5.5151-2.5243-8.2555-3.8213zm12.832 5.8648c2.7678 1.2192 5.5487 2.4122 8.3453 3.5696l-0.6301 1.5224c-2.8096-1.1626-5.602-2.3604-8.3794-3.584zm13.023 5.4647c2.8146 1.1151 5.6461 2.1895 8.4968 3.2142l-0.5571 1.55c-2.8689-1.0312-5.717-2.1118-8.5466-3.2326zm13.268 4.8746c0.5772 0.1942 1.1552 0.3862 1.7341 0.5758 2.3023 0.7545 4.621 1.4726 6.9584 2.1346l-0.449 1.5851c-2.3632-0.669-4.7032-1.3937-7.0221-2.1542-0.5831-0.1911-1.1653-0.3845-1.7465-0.5801zm13.597 4.0034c1.164 0.2827 2.3329 0.5484 3.507 0.7948 1.8073 0.3809 3.6347 0.7205 5.4785 0.9842l-0.237 1.6318c-1.8879-0.269-3.749-0.6152-5.5796-1.0037-1.192-0.2504-2.3778-0.5201-3.5576-0.8066zm14.091 2.2857c0.887 0.045 1.7768 0.066 2.6692 0.059h6.4453l0.01 1.6474h-6.4452c-0.9269 0.01-1.8491-0.016-2.766-0.063zm14.143 0.059h9.0481l0.01 1.6474h-9.048zm14.076 0h9.0482l0.01 1.6474h-9.048zm14.076 0h9.0482l0.01 1.6474h-9.048zm14.076 0h9.0482l0.01 1.6474h-9.048zm14.076 0h9.0482l0.01 1.6474h-9.0481zm14.076 0h9.0482l0.01 1.6474h-9.0481zm14.076 0h9.0482l0.01 1.6474h-9.0481zm14.076 0h9.0482l0.01 1.6474h-9.048zm14.076 0h9.0482v1.6474h-9.048zm14.076 0h9.0482v1.6474h-9.048zm14.076 0h9.0482v1.6474h-9.048zm14.076 0h9.0482v1.6474h-9.048zm14.076 0h9.0482v1.6474h-9.048zm14.076 0h9.0482v1.6474h-9.048zm14.076 0h9.0482v1.6474h-9.048zm14.076 0h9.0482v1.6474h-9.048zm14.076 0h9.0482v1.6474h-9.048zm14.076 0h9.0482v1.6474h-9.048zm14.076 0h9.0482v1.6474h-9.048zm14.076 0h9.0482v1.6474h-9.048zm14.076 0h9.0482v1.6474h-9.048zm14.076 0h9.0482v1.6474h-9.048zm14.076 0h9.0482v1.6474h-9.0481zm14.076 0h9.0482v1.6474h-9.0481zm14.076 0h9.0482v1.6474h-9.0481zm14.076 0h9.0482l8e-4 1.6474h-9.0481zm14.076 0h9.0482l5e-4 1.6474h-9.048zm14.076 0h9.0482l3e-4 1.6474h-9.048zm14.076 0h9.0482v1.6474h-9.048zm14.133-0.093c3.0601-0.1457 6.1175-0.4702 9.1407-1.0194l0.2943 1.62c-3.1036 0.5638-6.233 0.8972-9.3566 1.046zm14.146-2.1544c0.8771-0.2436 1.7505-0.5144 2.616-0.8202 0.3728-0.1318 0.7484-0.272 1.1244-0.4254 0.097-0.04 0.1965-0.081 0.2978-0.1252 0.018 0 0.039-0.01 0.063-0.03l4.5744-1.5637 0.6024 1.5306-4.5649 1.5602c-0.012 0.038-0.018 0.042-0.017 0.014-0.1163 0.051-0.2272 0.097-0.3324 0.1398-0.4073 0.166-0.8074 0.3155-1.1978 0.4533-0.9066 0.3199-1.8163 0.6023-2.7249 0.8548zm13.426-4.5889 8.5493-2.9223 0.575 1.5406-8.5316 2.9159zm13.3-4.5463 8.5492-2.9223 0.5476 1.5506-8.5316 2.9159zm13.3-4.5463 8.5492-2.9223 0.5202 1.5606-8.5316 2.9159zm13.3-4.5463 8.5492-2.9223 0.4928 1.5706-8.5316 2.9159zm13.316-4.5338c3.0047-0.8575 5.8576-2.1328 8.5002-3.7495l0.8942 1.3852c-2.7609 1.6886-5.746 3.0252-8.8968 3.9334zm12.701-6.748c2.3909-1.9726 4.5391-4.2442 6.3863-6.7385l1.3455 0.9723c-1.9222 2.5993-4.1594 4.9653-6.6532 7.0216zm9.1769-11.09c1.4946-2.7182 2.6557-5.6166 3.4248-8.619l1.595 0.405c-0.801 3.1405-2.0078 6.1664-3.562 9.0014zm4.3341-13.708c0.1129-1.1069 0.1716-2.2216 0.1732-3.3407 0-2.0052-0.175-4.0057-0.5119-5.9774l1.6224-0.2772c0.352 2.0613 0.5343 4.1542 0.5369 6.2546 0 1.1755-0.067 2.3452-0.1854 3.5057zm-1.5722-14.356c-0.9515-2.9644-2.2769-5.8086-3.9383-8.442l1.3922-0.8782c1.7365 2.7515 3.1203 5.7206 4.1138 8.8168zm-7.0132-12.621c-0.5979-0.7005-1.2232-1.3783-1.8752-2.0309-1.556-1.5544-3.2551-2.9579-5.0654-4.1974l0.9297-1.3582c1.8921 1.2957 3.6696 2.7637 5.3006 4.3907 0.6824 0.6841 1.3368 1.3938 1.9622 2.127zm-11.417-8.8485c-2.7906-1.3802-5.7551-2.4088-8.8025-3.0482l0.3381-1.6109c3.1849 0.6679 6.2799 1.7415 9.1943 3.1831zm-13.944-3.7472c-0.7258-0.045-1.4533-0.069-2.1815-0.069h-6.9378v-1.6474h6.9378c0.7628 1e-3 1.5246 0.026 2.2842 0.073zm-14.148-0.069h-9.0483l1e-4 -1.6474h9.0482zm-14.077 0h-9.0483v-1.6474h9.0483zm-14.077 0h-9.0483v-1.6474h9.0483zm-14.077 0h-9.0483v-1.6474h9.0483zm-14.077 0h-9.0483l1e-4 -1.6474h9.0482zm-14.077 0h-9.0483v-1.6474h9.0483zm-14.077 0h-9.0483v-1.6474h9.0483zm-14.077 0h-9.0483v-1.6474h9.0483zm-14.077 0h-9.0483v-1.6474h9.0483zm-14.077 0h-9.0483v-1.6474h9.0483zm-14.077 0h-9.0483v-1.6474h9.0483zm-14.077 0h-9.0483v-1.6474h9.0483zm-14.077 0h-9.0483v-1.6474h9.0483zm-14.077 0h-9.0483v-1.6474h9.0483zm-14.077 0h-9.0483v-1.6474h9.0483zm-14.077 0h-9.0482v-1.6474h9.0483zm-14.077 0h-9.0483v-1.6474h9.0483zm-14.077 0h-9.0483v-1.6474h9.0483zm-14.077 0h-9.0483v-1.6474h9.0483zm-14.077 0h-9.0482v-1.6474h9.0483zm-14.077 0h-9.0483v-1.6474h9.0483zm-14.077 0h-9.0483v-1.6474h9.0483zm-14.077 0h-9.0483v-1.6474h9.0483zm-14.077 0h-9.0482v-1.6474h9.0482zm-14.077 0h-9.0483v-1.6474h9.0483zm-14.077 0h-9.0483v-1.6474h9.0483zm-14.077 0h-9.0483v-1.6474h9.0483zm-14.077 0h-9.0483l1e-4 -1.6474h9.0482zm-14.077 0h-9.0483v-1.6474h9.0483zm-14.077 0h-9.0483v-1.6474h9.0483zm-14.077 0h-9.0483v-1.6474h9.0483zm-14.077 0h-9.0483v-1.6474h9.0483zm-14.077 0h-9.0483v-1.6474h9.0483zm-14.077 0h-9.0483v-1.6474h9.0483zm-14.077 0h-9.0483v-1.6474h9.0483zm-14.077 0h-9.0483v-1.6474h9.0483zm-14.077 0h-9.0483v-1.6474h9.0483zm-14.077 0h-9.0483v-1.6474h9.0483zm-14.077 0h-9.0483v-1.6474h9.0483zm-14.077 0h-9.0483v-1.6474h9.0483z" fill="#1f241c"/>
   <g transform="translate(248.62 1523)" fill="#1f241c">
    <path d="m52.031-626.62c-21.165 0-38.312 17.147-38.312 38.312s17.147 38.344 38.312 38.344 38.312-17.178 38.312-38.344c0-21.165-17.147-38.312-38.312-38.312zm0 4.6562c18.592 0 33.656 15.064 33.656 33.656s-15.064 33.688-33.656 33.688-33.656-15.096-33.656-33.688 15.064-33.656 33.656-33.656z"/>
    <path transform="matrix(5.9726,0,0,5.9726,-259.8,2923.2)" d="m60.067-587.94c0 4.3392-3.5176 7.8568-7.8568 7.8568s-7.8568-3.5176-7.8568-7.8568 3.5176-7.8568 7.8568-7.8568 7.8568 3.5176 7.8568 7.8568z" stroke-width=".16743"/>
    <path d="m52.031-621.97c-3.0191 0-5.9348 0.41084-8.7188 1.1562l6.688 24.93c0.64752-0.17268 1.3293-0.28125 2.0312-0.28125 0.70193 0 1.3837 0.10857 2.0312 0.28125l6.6875-24.938c-2.784-0.74541-5.6997-1.1562-8.7188-1.1562zm0 3.3125c1.9143 0 3.4688 1.5545 3.4688 3.4688s-1.5545 3.4688-3.4688 3.4688-3.4688-1.5545-3.4688-3.4688 1.5545-3.4688 3.4688-3.4688zm0 14.344c0.87502 0 1.5938 0.71874 1.5938 1.5938 0 0.87502-0.71873 1.5625-1.5938 1.5625-0.87502 0-1.5938-0.68748-1.5938-1.5625 0-0.87501 0.71873-1.5938 1.5938-1.5938z"/>
    <path d="m35.198-617.46c-2.6146 1.5095-4.9342 3.3232-6.9725 5.3607l18.26 18.253c0.47443-0.4733 1.0106-0.90823 1.6185-1.2592 0.60789-0.35097 1.2526-0.59784 1.8997-0.77206l-6.6772-24.94c-2.7837 0.74645-5.5142 1.8485-8.1288 3.358zm1.6562 2.8687c1.6578-0.95714 3.7813-0.38816 4.7384 1.2696 0.95714 1.6578 0.38816 3.7813-1.2696 4.7384-1.6578 0.95714-3.7813 0.38816-4.7384-1.2696-0.95714-1.6578-0.38816-3.7813 1.2697-4.7384zm7.1719 12.422c0.75779-0.43751 1.7396-0.17443 2.1771 0.58335 0.43751 0.75779 0.15881 1.7125-0.59898 2.15-0.75779 0.43751-1.724 0.2015-2.1615-0.55629-0.4375-0.75778-0.17444-1.7396 0.58335-2.1771z"/>
    <path d="m22.875-605.14c-1.5095 2.6146-2.6116 5.3451-3.358 8.1288l24.94 6.6772c0.17422-0.6471 0.42109-1.2918 0.77206-1.8997 0.35096-0.6079 0.78589-1.1441 1.2592-1.6185l-18.253-18.26c-2.0375 2.0383-3.8512 4.3579-5.3607 6.9725zm2.8687 1.6562c0.95714-1.6578 3.0806-2.2268 4.7384-1.2696 1.6578 0.95713 2.2268 3.0806 1.2697 4.7384-0.95714 1.6578-3.0806 2.2268-4.7384 1.2696-1.6578-0.95714-2.2268-3.0806-1.2696-4.7384zm12.422 7.1719c0.43751-0.75778 1.4193-1.0209 2.1771-0.58335 0.75779 0.43751 0.9938 1.4037 0.55629 2.1615-0.43751 0.75778-1.3922 1.0365-2.15 0.59897-0.75778-0.4375-1.0209-1.4193-0.58335-2.1771z"/>
    <path d="m18.365-588.3c-5e-6 3.0191 0.41083 5.9348 1.1562 8.7187l24.937-6.6875c-0.17267-0.64752-0.28125-1.3293-0.28124-2.0312-7e-6 -0.70194 0.10857-1.3837 0.28125-2.0312l-24.938-6.6875c-0.7454 2.784-1.1562 5.6997-1.1562 8.7188zm3.3125 0c0-1.9143 1.5545-3.4688 3.4687-3.4688 1.9143-1e-5 3.4688 1.5545 3.4688 3.4688s-1.5545 3.4688-3.4688 3.4688c-1.9143-1e-5 -3.4688-1.5545-3.4687-3.4688zm14.344-1e-5c3e-6 -0.87501 0.71874-1.5938 1.5938-1.5938 0.87502 0 1.5625 0.71874 1.5625 1.5938-4e-6 0.87501-0.68748 1.5937-1.5625 1.5937-0.87501 0-1.5937-0.71873-1.5937-1.5938z"/>
    <path d="m22.875-571.47c1.5095 2.6146 3.3232 4.9342 5.3607 6.9725l18.253-18.26c-0.4733-0.47443-0.90823-1.0106-1.2592-1.6185-0.35098-0.60789-0.59784-1.2526-0.77206-1.8997l-24.94 6.6772c0.74645 2.7837 1.8485 5.5142 3.358 8.1288zm2.8687-1.6562c-0.95714-1.6578-0.38816-3.7813 1.2696-4.7384 1.6578-0.95714 3.7813-0.38816 4.7384 1.2696 0.95714 1.6578 0.38816 3.7813-1.2697 4.7384-1.6578 0.95713-3.7813 0.38816-4.7384-1.2696zm12.422-7.1719c-0.4375-0.75778-0.17443-1.7396 0.58335-2.1771 0.75779-0.43751 1.7125-0.1588 2.15 0.59898 0.4375 0.75779 0.20149 1.724-0.5563 2.1615-0.75778 0.4375-1.7396 0.17443-2.1771-0.58336z"/>
    <path d="m35.198-559.15c2.6146 1.5096 5.3451 2.6116 8.1288 3.358l6.6772-24.94c-0.6471-0.17422-1.2919-0.42109-1.8997-0.77206-0.6079-0.35096-1.1441-0.78589-1.6185-1.2592l-18.26 18.253c2.0383 2.0375 4.3579 3.8512 6.9725 5.3607zm1.6562-2.8687c-1.6578-0.95714-2.2268-3.0806-1.2697-4.7384 0.95713-1.6578 3.0806-2.2268 4.7384-1.2696 1.6578 0.95713 2.2268 3.0806 1.2696 4.7384-0.95714 1.6578-3.0806 2.2268-4.7384 1.2696zm7.1719-12.422c-0.75778-0.4375-1.0209-1.4193-0.58335-2.1771 0.43751-0.75779 1.4037-0.99379 2.1615-0.55629 0.75778 0.43752 1.0365 1.3923 0.59897 2.15-0.43751 0.75777-1.4193 1.0208-2.1771 0.58334z"/>
    <path d="m52.031-554.64c3.0191 1e-5 5.9348-0.41083 8.7187-1.1562l-6.6875-24.937c-0.64752 0.17267-1.3293 0.28125-2.0312 0.28124-0.70194 1e-5 -1.3837-0.10857-2.0312-0.28124l-6.6875 24.938c2.784 0.7454 5.6997 1.1562 8.7188 1.1562zm0-3.3125c-1.9143 0-3.4688-1.5545-3.4688-3.4688-5e-6 -1.9143 1.5545-3.4688 3.4688-3.4688s3.4688 1.5545 3.4687 3.4688c-1.2e-5 1.9143-1.5545 3.4688-3.4687 3.4688zm-1.3e-5 -14.344c-0.875 0-1.5937-0.71873-1.5937-1.5938 0-0.87502 0.71874-1.5625 1.5938-1.5625 0.87502 1e-5 1.5938 0.68749 1.5938 1.5625-6e-6 0.875-0.71874 1.5937-1.5938 1.5937z"/>
    <path d="m68.864-559.15c2.6146-1.5095 4.9342-3.3232 6.9725-5.3607l-18.26-18.253c-0.47443 0.4733-1.0106 0.90823-1.6185 1.2592-0.60789 0.35097-1.2526 0.59784-1.8997 0.77206l6.6772 24.94c2.7837-0.74646 5.5142-1.8485 8.1288-3.358zm-1.6562-2.8687c-1.6578 0.95714-3.7813 0.38816-4.7384-1.2696-0.95714-1.6578-0.38816-3.7813 1.2696-4.7384 1.6578-0.95714 3.7813-0.38816 4.7384 1.2696 0.95712 1.6578 0.38816 3.7813-1.2696 4.7384zm-7.1719-12.422c-0.75778 0.43751-1.7396 0.17444-2.1771-0.58335-0.43751-0.75779-0.1588-1.7125 0.59898-2.15 0.7578-0.4375 1.724-0.20149 2.1615 0.55629s0.17443 1.7396-0.58336 2.1771z"/>
    <path d="m81.187-571.47c1.5095-2.6146 2.6116-5.3451 3.358-8.1288l-24.94-6.6772c-0.17422 0.64711-0.42109 1.2918-0.77206 1.8997-0.35096 0.60789-0.78589 1.1441-1.2592 1.6185l18.253 18.26c2.0375-2.0383 3.8512-4.3579 5.3607-6.9726zm-2.8687-1.6562c-0.95714 1.6578-3.0806 2.2268-4.7384 1.2696-1.6578-0.95714-2.2268-3.0806-1.2697-4.7384 0.95713-1.6578 3.0806-2.2268 4.7384-1.2696 1.6578 0.95714 2.2268 3.0806 1.2697 4.7384zm-12.422-7.1719c-0.4375 0.75778-1.4193 1.0209-2.1771 0.58335-0.75779-0.43751-0.9938-1.4037-0.55629-2.1615 0.43752-0.75778 1.3923-1.0365 2.15-0.59898 0.75777 0.43751 1.0209 1.4193 0.58334 2.1771z"/>
    <path d="m85.698-588.3c3e-6 -3.0191-0.41084-5.9348-1.1563-8.7187l-24.937 6.6875c0.17268 0.64752 0.28125 1.3293 0.28125 2.0312 3e-6 0.70193-0.10857 1.3837-0.28124 2.0312l24.938 6.6875c0.7454-2.784 1.1562-5.6997 1.1562-8.7188zm-3.3125 0c0 1.9143-1.5545 3.4688-3.4688 3.4688s-3.4688-1.5545-3.4688-3.4688c-4e-6 -1.9143 1.5545-3.4688 3.4688-3.4688 1.9143 1e-5 3.4688 1.5545 3.4688 3.4688zm-14.344 1e-5c4e-6 0.87501-0.71872 1.5937-1.5937 1.5938-0.87502 0-1.5625-0.71875-1.5625-1.5938 1.3e-5 -0.87501 0.68749-1.5937 1.5625-1.5938 0.875 1e-5 1.5937 0.71874 1.5937 1.5938z"/>
    <path d="m81.187-605.14c-1.5095-2.6146-3.3232-4.9342-5.3607-6.9725l-18.253 18.26c0.4733 0.47444 0.90823 1.0106 1.2592 1.6185 0.35097 0.60789 0.59784 1.2526 0.77206 1.8997l24.94-6.6772c-0.74646-2.7837-1.8485-5.5142-3.358-8.1288zm-2.8687 1.6562c0.95714 1.6578 0.38816 3.7813-1.2697 4.7384-1.6578 0.95713-3.7813 0.38816-4.7384-1.2697-0.95714-1.6578-0.38816-3.7813 1.2696-4.7384 1.6578-0.95712 3.7813-0.38815 4.7384 1.2696zm-12.422 7.1719c0.43751 0.75778 0.17444 1.7396-0.58335 2.1771-0.75779 0.43751-1.7125 0.1588-2.15-0.59898-0.43749-0.75779-0.20148-1.724 0.55629-2.1615 0.75778-0.4375 1.7396-0.17443 2.1771 0.58336z"/>
    <path d="m68.864-617.46c-2.6146-1.5095-5.3451-2.6116-8.1288-3.358l-6.6772 24.94c0.64711 0.17422 1.2918 0.42109 1.8997 0.77206 0.60789 0.35096 1.1441 0.78588 1.6185 1.2592l18.26-18.253c-2.0383-2.0375-4.3579-3.8512-6.9725-5.3607zm-1.6563 2.8687c1.6578 0.95715 2.2268 3.0806 1.2697 4.7384-0.95714 1.6578-3.0806 2.2268-4.7384 1.2696-1.6578-0.95713-2.2268-3.0806-1.2697-4.7384 0.95714-1.6578 3.0806-2.2268 4.7384-1.2697zm-7.1719 12.422c0.75778 0.4375 1.0209 1.4193 0.58335 2.1771-0.43751 0.75779-1.4037 0.99379-2.1615 0.55629-0.75778-0.43752-1.0365-1.3923-0.59898-2.15 0.43751-0.75777 1.4193-1.0208 2.1771-0.58334z"/>
    <path transform="translate(-.17921 -.35843)" d="m60.067-587.94c0 4.3392-3.5176 7.8568-7.8568 7.8568s-7.8568-3.5176-7.8568-7.8568 3.5176-7.8568 7.8568-7.8568 7.8568 3.5176 7.8568 7.8568z"/>
   </g>
   <g transform="translate(357.92 1523)" fill="#1f241c">
    <path d="m52.031-626.62c-21.165 0-38.312 17.147-38.312 38.312s17.147 38.344 38.312 38.344 38.312-17.178 38.312-38.344c0-21.165-17.147-38.312-38.312-38.312zm0 4.6562c18.592 0 33.656 15.064 33.656 33.656s-15.064 33.688-33.656 33.688-33.656-15.096-33.656-33.688 15.064-33.656 33.656-33.656z"/>
    <path transform="matrix(5.9726,0,0,5.9726,-259.8,2923.2)" d="m60.067-587.94c0 4.3392-3.5176 7.8568-7.8568 7.8568s-7.8568-3.5176-7.8568-7.8568 3.5176-7.8568 7.8568-7.8568 7.8568 3.5176 7.8568 7.8568z" stroke-width=".16743"/>
    <path d="m52.031-621.97c-3.0191 0-5.9348 0.41084-8.7188 1.1562l6.688 24.93c0.64752-0.17268 1.3293-0.28125 2.0312-0.28125 0.70193 0 1.3837 0.10857 2.0312 0.28125l6.6875-24.938c-2.784-0.74541-5.6997-1.1562-8.7188-1.1562zm0 3.3125c1.9143 0 3.4688 1.5545 3.4688 3.4688s-1.5545 3.4688-3.4688 3.4688-3.4688-1.5545-3.4688-3.4688 1.5545-3.4688 3.4688-3.4688zm0 14.344c0.87502 0 1.5938 0.71874 1.5938 1.5938 0 0.87502-0.71873 1.5625-1.5938 1.5625-0.87502 0-1.5938-0.68748-1.5938-1.5625 0-0.87501 0.71873-1.5938 1.5938-1.5938z"/>
    <path d="m35.198-617.46c-2.6146 1.5095-4.9342 3.3232-6.9725 5.3607l18.26 18.253c0.47443-0.4733 1.0106-0.90823 1.6185-1.2592 0.60789-0.35097 1.2526-0.59784 1.8997-0.77206l-6.6772-24.94c-2.7837 0.74645-5.5142 1.8485-8.1288 3.358zm1.6562 2.8687c1.6578-0.95714 3.7813-0.38816 4.7384 1.2696 0.95714 1.6578 0.38816 3.7813-1.2696 4.7384-1.6578 0.95714-3.7813 0.38816-4.7384-1.2696-0.95714-1.6578-0.38816-3.7813 1.2697-4.7384zm7.1719 12.422c0.75779-0.43751 1.7396-0.17443 2.1771 0.58335 0.43751 0.75779 0.15881 1.7125-0.59898 2.15-0.75779 0.43751-1.724 0.2015-2.1615-0.55629-0.4375-0.75778-0.17444-1.7396 0.58335-2.1771z"/>
    <path d="m22.875-605.14c-1.5095 2.6146-2.6116 5.3451-3.358 8.1288l24.94 6.6772c0.17422-0.6471 0.42109-1.2918 0.77206-1.8997 0.35096-0.6079 0.78589-1.1441 1.2592-1.6185l-18.253-18.26c-2.0375 2.0383-3.8512 4.3579-5.3607 6.9725zm2.8687 1.6562c0.95714-1.6578 3.0806-2.2268 4.7384-1.2696 1.6578 0.95713 2.2268 3.0806 1.2697 4.7384-0.95714 1.6578-3.0806 2.2268-4.7384 1.2696-1.6578-0.95714-2.2268-3.0806-1.2696-4.7384zm12.422 7.1719c0.43751-0.75778 1.4193-1.0209 2.1771-0.58335 0.75779 0.43751 0.9938 1.4037 0.55629 2.1615-0.43751 0.75778-1.3922 1.0365-2.15 0.59897-0.75778-0.4375-1.0209-1.4193-0.58335-2.1771z"/>
    <path d="m18.365-588.3c-5e-6 3.0191 0.41083 5.9348 1.1562 8.7187l24.937-6.6875c-0.17267-0.64752-0.28125-1.3293-0.28124-2.0312-7e-6 -0.70194 0.10857-1.3837 0.28125-2.0312l-24.938-6.6875c-0.7454 2.784-1.1562 5.6997-1.1562 8.7188zm3.3125 0c0-1.9143 1.5545-3.4688 3.4687-3.4688 1.9143-1e-5 3.4688 1.5545 3.4688 3.4688s-1.5545 3.4688-3.4688 3.4688c-1.9143-1e-5 -3.4688-1.5545-3.4687-3.4688zm14.344-1e-5c3e-6 -0.87501 0.71874-1.5938 1.5938-1.5938 0.87502 0 1.5625 0.71874 1.5625 1.5938-4e-6 0.87501-0.68748 1.5937-1.5625 1.5937-0.87501 0-1.5937-0.71873-1.5937-1.5938z"/>
    <path d="m22.875-571.47c1.5095 2.6146 3.3232 4.9342 5.3607 6.9725l18.253-18.26c-0.4733-0.47443-0.90823-1.0106-1.2592-1.6185-0.35098-0.60789-0.59784-1.2526-0.77206-1.8997l-24.94 6.6772c0.74645 2.7837 1.8485 5.5142 3.358 8.1288zm2.8687-1.6562c-0.95714-1.6578-0.38816-3.7813 1.2696-4.7384 1.6578-0.95714 3.7813-0.38816 4.7384 1.2696 0.95714 1.6578 0.38816 3.7813-1.2697 4.7384-1.6578 0.95713-3.7813 0.38816-4.7384-1.2696zm12.422-7.1719c-0.4375-0.75778-0.17443-1.7396 0.58335-2.1771 0.75779-0.43751 1.7125-0.1588 2.15 0.59898 0.4375 0.75779 0.20149 1.724-0.5563 2.1615-0.75778 0.4375-1.7396 0.17443-2.1771-0.58336z"/>
    <path d="m35.198-559.15c2.6146 1.5096 5.3451 2.6116 8.1288 3.358l6.6772-24.94c-0.6471-0.17422-1.2919-0.42109-1.8997-0.77206-0.6079-0.35096-1.1441-0.78589-1.6185-1.2592l-18.26 18.253c2.0383 2.0375 4.3579 3.8512 6.9725 5.3607zm1.6562-2.8687c-1.6578-0.95714-2.2268-3.0806-1.2697-4.7384 0.95713-1.6578 3.0806-2.2268 4.7384-1.2696 1.6578 0.95713 2.2268 3.0806 1.2696 4.7384-0.95714 1.6578-3.0806 2.2268-4.7384 1.2696zm7.1719-12.422c-0.75778-0.4375-1.0209-1.4193-0.58335-2.1771 0.43751-0.75779 1.4037-0.99379 2.1615-0.55629 0.75778 0.43752 1.0365 1.3923 0.59897 2.15-0.43751 0.75777-1.4193 1.0208-2.1771 0.58334z"/>
    <path d="m52.031-554.64c3.0191 1e-5 5.9348-0.41083 8.7187-1.1562l-6.6875-24.937c-0.64752 0.17267-1.3293 0.28125-2.0312 0.28124-0.70194 1e-5 -1.3837-0.10857-2.0312-0.28124l-6.6875 24.938c2.784 0.7454 5.6997 1.1562 8.7188 1.1562zm0-3.3125c-1.9143 0-3.4688-1.5545-3.4688-3.4688-5e-6 -1.9143 1.5545-3.4688 3.4688-3.4688s3.4688 1.5545 3.4687 3.4688c-1.2e-5 1.9143-1.5545 3.4688-3.4687 3.4688zm-1.3e-5 -14.344c-0.875 0-1.5937-0.71873-1.5937-1.5938 0-0.87502 0.71874-1.5625 1.5938-1.5625 0.87502 1e-5 1.5938 0.68749 1.5938 1.5625-6e-6 0.875-0.71874 1.5937-1.5938 1.5937z"/>
    <path d="m68.864-559.15c2.6146-1.5095 4.9342-3.3232 6.9725-5.3607l-18.26-18.253c-0.47443 0.4733-1.0106 0.90823-1.6185 1.2592-0.60789 0.35097-1.2526 0.59784-1.8997 0.77206l6.6772 24.94c2.7837-0.74646 5.5142-1.8485 8.1288-3.358zm-1.6562-2.8687c-1.6578 0.95714-3.7813 0.38816-4.7384-1.2696-0.95714-1.6578-0.38816-3.7813 1.2696-4.7384 1.6578-0.95714 3.7813-0.38816 4.7384 1.2696 0.95712 1.6578 0.38816 3.7813-1.2696 4.7384zm-7.1719-12.422c-0.75778 0.43751-1.7396 0.17444-2.1771-0.58335-0.43751-0.75779-0.1588-1.7125 0.59898-2.15 0.7578-0.4375 1.724-0.20149 2.1615 0.55629s0.17443 1.7396-0.58336 2.1771z"/>
    <path d="m81.187-571.47c1.5095-2.6146 2.6116-5.3451 3.358-8.1288l-24.94-6.6772c-0.17422 0.64711-0.42109 1.2918-0.77206 1.8997-0.35096 0.60789-0.78589 1.1441-1.2592 1.6185l18.253 18.26c2.0375-2.0383 3.8512-4.3579 5.3607-6.9726zm-2.8687-1.6562c-0.95714 1.6578-3.0806 2.2268-4.7384 1.2696-1.6578-0.95714-2.2268-3.0806-1.2697-4.7384 0.95713-1.6578 3.0806-2.2268 4.7384-1.2696 1.6578 0.95714 2.2268 3.0806 1.2697 4.7384zm-12.422-7.1719c-0.4375 0.75778-1.4193 1.0209-2.1771 0.58335-0.75779-0.43751-0.9938-1.4037-0.55629-2.1615 0.43752-0.75778 1.3923-1.0365 2.15-0.59898 0.75777 0.43751 1.0209 1.4193 0.58334 2.1771z"/>
    <path d="m85.698-588.3c3e-6 -3.0191-0.41084-5.9348-1.1563-8.7187l-24.937 6.6875c0.17268 0.64752 0.28125 1.3293 0.28125 2.0312 3e-6 0.70193-0.10857 1.3837-0.28124 2.0312l24.938 6.6875c0.7454-2.784 1.1562-5.6997 1.1562-8.7188zm-3.3125 0c0 1.9143-1.5545 3.4688-3.4688 3.4688s-3.4688-1.5545-3.4688-3.4688c-4e-6 -1.9143 1.5545-3.4688 3.4688-3.4688 1.9143 1e-5 3.4688 1.5545 3.4688 3.4688zm-14.344 1e-5c4e-6 0.87501-0.71872 1.5937-1.5937 1.5938-0.87502 0-1.5625-0.71875-1.5625-1.5938 1.3e-5 -0.87501 0.68749-1.5937 1.5625-1.5938 0.875 1e-5 1.5937 0.71874 1.5937 1.5938z"/>
    <path d="m81.187-605.14c-1.5095-2.6146-3.3232-4.9342-5.3607-6.9725l-18.253 18.26c0.4733 0.47444 0.90823 1.0106 1.2592 1.6185 0.35097 0.60789 0.59784 1.2526 0.77206 1.8997l24.94-6.6772c-0.74646-2.7837-1.8485-5.5142-3.358-8.1288zm-2.8687 1.6562c0.95714 1.6578 0.38816 3.7813-1.2697 4.7384-1.6578 0.95713-3.7813 0.38816-4.7384-1.2697-0.95714-1.6578-0.38816-3.7813 1.2696-4.7384 1.6578-0.95712 3.7813-0.38815 4.7384 1.2696zm-12.422 7.1719c0.43751 0.75778 0.17444 1.7396-0.58335 2.1771-0.75779 0.43751-1.7125 0.1588-2.15-0.59898-0.43749-0.75779-0.20148-1.724 0.55629-2.1615 0.75778-0.4375 1.7396-0.17443 2.1771 0.58336z"/>
    <path d="m68.864-617.46c-2.6146-1.5095-5.3451-2.6116-8.1288-3.358l-6.6772 24.94c0.64711 0.17422 1.2918 0.42109 1.8997 0.77206 0.60789 0.35096 1.1441 0.78588 1.6185 1.2592l18.26-18.253c-2.0383-2.0375-4.3579-3.8512-6.9725-5.3607zm-1.6563 2.8687c1.6578 0.95715 2.2268 3.0806 1.2697 4.7384-0.95714 1.6578-3.0806 2.2268-4.7384 1.2696-1.6578-0.95713-2.2268-3.0806-1.2697-4.7384 0.95714-1.6578 3.0806-2.2268 4.7384-1.2697zm-7.1719 12.422c0.75778 0.4375 1.0209 1.4193 0.58335 2.1771-0.43751 0.75779-1.4037 0.99379-2.1615 0.55629-0.75778-0.43752-1.0365-1.3923-0.59898-2.15 0.43751-0.75777 1.4193-1.0208 2.1771-0.58334z"/>
    <path transform="translate(-.17921 -.35843)" d="m60.067-587.94c0 4.3392-3.5176 7.8568-7.8568 7.8568s-7.8568-3.5176-7.8568-7.8568 3.5176-7.8568 7.8568-7.8568 7.8568 3.5176 7.8568 7.8568z"/>
   </g>
   <g transform="translate(456.12 1523)" fill="#1f241c">
    <path d="m52.031-626.62c-21.165 0-38.312 17.147-38.312 38.312s17.147 38.344 38.312 38.344 38.312-17.178 38.312-38.344c0-21.165-17.147-38.312-38.312-38.312zm0 4.6562c18.592 0 33.656 15.064 33.656 33.656s-15.064 33.688-33.656 33.688-33.656-15.096-33.656-33.688 15.064-33.656 33.656-33.656z"/>
    <path transform="matrix(5.9726,0,0,5.9726,-259.8,2923.2)" d="m60.067-587.94c0 4.3392-3.5176 7.8568-7.8568 7.8568s-7.8568-3.5176-7.8568-7.8568 3.5176-7.8568 7.8568-7.8568 7.8568 3.5176 7.8568 7.8568z" stroke-width=".16743"/>
    <path d="m52.031-621.97c-3.0191 0-5.9348 0.41084-8.7188 1.1562l6.688 24.93c0.64752-0.17268 1.3293-0.28125 2.0312-0.28125 0.70193 0 1.3837 0.10857 2.0312 0.28125l6.6875-24.938c-2.784-0.74541-5.6997-1.1562-8.7188-1.1562zm0 3.3125c1.9143 0 3.4688 1.5545 3.4688 3.4688s-1.5545 3.4688-3.4688 3.4688-3.4688-1.5545-3.4688-3.4688 1.5545-3.4688 3.4688-3.4688zm0 14.344c0.87502 0 1.5938 0.71874 1.5938 1.5938 0 0.87502-0.71873 1.5625-1.5938 1.5625-0.87502 0-1.5938-0.68748-1.5938-1.5625 0-0.87501 0.71873-1.5938 1.5938-1.5938z"/>
    <path d="m35.198-617.46c-2.6146 1.5095-4.9342 3.3232-6.9725 5.3607l18.26 18.253c0.47443-0.4733 1.0106-0.90823 1.6185-1.2592 0.60789-0.35097 1.2526-0.59784 1.8997-0.77206l-6.6772-24.94c-2.7837 0.74645-5.5142 1.8485-8.1288 3.358zm1.6562 2.8687c1.6578-0.95714 3.7813-0.38816 4.7384 1.2696 0.95714 1.6578 0.38816 3.7813-1.2696 4.7384-1.6578 0.95714-3.7813 0.38816-4.7384-1.2696-0.95714-1.6578-0.38816-3.7813 1.2697-4.7384zm7.1719 12.422c0.75779-0.43751 1.7396-0.17443 2.1771 0.58335 0.43751 0.75779 0.15881 1.7125-0.59898 2.15-0.75779 0.43751-1.724 0.2015-2.1615-0.55629-0.4375-0.75778-0.17444-1.7396 0.58335-2.1771z"/>
    <path d="m22.875-605.14c-1.5095 2.6146-2.6116 5.3451-3.358 8.1288l24.94 6.6772c0.17422-0.6471 0.42109-1.2918 0.77206-1.8997 0.35096-0.6079 0.78589-1.1441 1.2592-1.6185l-18.253-18.26c-2.0375 2.0383-3.8512 4.3579-5.3607 6.9725zm2.8687 1.6562c0.95714-1.6578 3.0806-2.2268 4.7384-1.2696 1.6578 0.95713 2.2268 3.0806 1.2697 4.7384-0.95714 1.6578-3.0806 2.2268-4.7384 1.2696-1.6578-0.95714-2.2268-3.0806-1.2696-4.7384zm12.422 7.1719c0.43751-0.75778 1.4193-1.0209 2.1771-0.58335 0.75779 0.43751 0.9938 1.4037 0.55629 2.1615-0.43751 0.75778-1.3922 1.0365-2.15 0.59897-0.75778-0.4375-1.0209-1.4193-0.58335-2.1771z"/>
    <path d="m18.365-588.3c-5e-6 3.0191 0.41083 5.9348 1.1562 8.7187l24.937-6.6875c-0.17267-0.64752-0.28125-1.3293-0.28124-2.0312-7e-6 -0.70194 0.10857-1.3837 0.28125-2.0312l-24.938-6.6875c-0.7454 2.784-1.1562 5.6997-1.1562 8.7188zm3.3125 0c0-1.9143 1.5545-3.4688 3.4687-3.4688 1.9143-1e-5 3.4688 1.5545 3.4688 3.4688s-1.5545 3.4688-3.4688 3.4688c-1.9143-1e-5 -3.4688-1.5545-3.4687-3.4688zm14.344-1e-5c3e-6 -0.87501 0.71874-1.5938 1.5938-1.5938 0.87502 0 1.5625 0.71874 1.5625 1.5938-4e-6 0.87501-0.68748 1.5937-1.5625 1.5937-0.87501 0-1.5937-0.71873-1.5937-1.5938z"/>
    <path d="m22.875-571.47c1.5095 2.6146 3.3232 4.9342 5.3607 6.9725l18.253-18.26c-0.4733-0.47443-0.90823-1.0106-1.2592-1.6185-0.35098-0.60789-0.59784-1.2526-0.77206-1.8997l-24.94 6.6772c0.74645 2.7837 1.8485 5.5142 3.358 8.1288zm2.8687-1.6562c-0.95714-1.6578-0.38816-3.7813 1.2696-4.7384 1.6578-0.95714 3.7813-0.38816 4.7384 1.2696 0.95714 1.6578 0.38816 3.7813-1.2697 4.7384-1.6578 0.95713-3.7813 0.38816-4.7384-1.2696zm12.422-7.1719c-0.4375-0.75778-0.17443-1.7396 0.58335-2.1771 0.75779-0.43751 1.7125-0.1588 2.15 0.59898 0.4375 0.75779 0.20149 1.724-0.5563 2.1615-0.75778 0.4375-1.7396 0.17443-2.1771-0.58336z"/>
    <path d="m35.198-559.15c2.6146 1.5096 5.3451 2.6116 8.1288 3.358l6.6772-24.94c-0.6471-0.17422-1.2919-0.42109-1.8997-0.77206-0.6079-0.35096-1.1441-0.78589-1.6185-1.2592l-18.26 18.253c2.0383 2.0375 4.3579 3.8512 6.9725 5.3607zm1.6562-2.8687c-1.6578-0.95714-2.2268-3.0806-1.2697-4.7384 0.95713-1.6578 3.0806-2.2268 4.7384-1.2696 1.6578 0.95713 2.2268 3.0806 1.2696 4.7384-0.95714 1.6578-3.0806 2.2268-4.7384 1.2696zm7.1719-12.422c-0.75778-0.4375-1.0209-1.4193-0.58335-2.1771 0.43751-0.75779 1.4037-0.99379 2.1615-0.55629 0.75778 0.43752 1.0365 1.3923 0.59897 2.15-0.43751 0.75777-1.4193 1.0208-2.1771 0.58334z"/>
    <path d="m52.031-554.64c3.0191 1e-5 5.9348-0.41083 8.7187-1.1562l-6.6875-24.937c-0.64752 0.17267-1.3293 0.28125-2.0312 0.28124-0.70194 1e-5 -1.3837-0.10857-2.0312-0.28124l-6.6875 24.938c2.784 0.7454 5.6997 1.1562 8.7188 1.1562zm0-3.3125c-1.9143 0-3.4688-1.5545-3.4688-3.4688-5e-6 -1.9143 1.5545-3.4688 3.4688-3.4688s3.4688 1.5545 3.4687 3.4688c-1.2e-5 1.9143-1.5545 3.4688-3.4687 3.4688zm-1.3e-5 -14.344c-0.875 0-1.5937-0.71873-1.5937-1.5938 0-0.87502 0.71874-1.5625 1.5938-1.5625 0.87502 1e-5 1.5938 0.68749 1.5938 1.5625-6e-6 0.875-0.71874 1.5937-1.5938 1.5937z"/>
    <path d="m68.864-559.15c2.6146-1.5095 4.9342-3.3232 6.9725-5.3607l-18.26-18.253c-0.47443 0.4733-1.0106 0.90823-1.6185 1.2592-0.60789 0.35097-1.2526 0.59784-1.8997 0.77206l6.6772 24.94c2.7837-0.74646 5.5142-1.8485 8.1288-3.358zm-1.6562-2.8687c-1.6578 0.95714-3.7813 0.38816-4.7384-1.2696-0.95714-1.6578-0.38816-3.7813 1.2696-4.7384 1.6578-0.95714 3.7813-0.38816 4.7384 1.2696 0.95712 1.6578 0.38816 3.7813-1.2696 4.7384zm-7.1719-12.422c-0.75778 0.43751-1.7396 0.17444-2.1771-0.58335-0.43751-0.75779-0.1588-1.7125 0.59898-2.15 0.7578-0.4375 1.724-0.20149 2.1615 0.55629s0.17443 1.7396-0.58336 2.1771z"/>
    <path d="m81.187-571.47c1.5095-2.6146 2.6116-5.3451 3.358-8.1288l-24.94-6.6772c-0.17422 0.64711-0.42109 1.2918-0.77206 1.8997-0.35096 0.60789-0.78589 1.1441-1.2592 1.6185l18.253 18.26c2.0375-2.0383 3.8512-4.3579 5.3607-6.9726zm-2.8687-1.6562c-0.95714 1.6578-3.0806 2.2268-4.7384 1.2696-1.6578-0.95714-2.2268-3.0806-1.2697-4.7384 0.95713-1.6578 3.0806-2.2268 4.7384-1.2696 1.6578 0.95714 2.2268 3.0806 1.2697 4.7384zm-12.422-7.1719c-0.4375 0.75778-1.4193 1.0209-2.1771 0.58335-0.75779-0.43751-0.9938-1.4037-0.55629-2.1615 0.43752-0.75778 1.3923-1.0365 2.15-0.59898 0.75777 0.43751 1.0209 1.4193 0.58334 2.1771z"/>
    <path d="m85.698-588.3c3e-6 -3.0191-0.41084-5.9348-1.1563-8.7187l-24.937 6.6875c0.17268 0.64752 0.28125 1.3293 0.28125 2.0312 3e-6 0.70193-0.10857 1.3837-0.28124 2.0312l24.938 6.6875c0.7454-2.784 1.1562-5.6997 1.1562-8.7188zm-3.3125 0c0 1.9143-1.5545 3.4688-3.4688 3.4688s-3.4688-1.5545-3.4688-3.4688c-4e-6 -1.9143 1.5545-3.4688 3.4688-3.4688 1.9143 1e-5 3.4688 1.5545 3.4688 3.4688zm-14.344 1e-5c4e-6 0.87501-0.71872 1.5937-1.5937 1.5938-0.87502 0-1.5625-0.71875-1.5625-1.5938 1.3e-5 -0.87501 0.68749-1.5937 1.5625-1.5938 0.875 1e-5 1.5937 0.71874 1.5937 1.5938z"/>
    <path d="m81.187-605.14c-1.5095-2.6146-3.3232-4.9342-5.3607-6.9725l-18.253 18.26c0.4733 0.47444 0.90823 1.0106 1.2592 1.6185 0.35097 0.60789 0.59784 1.2526 0.77206 1.8997l24.94-6.6772c-0.74646-2.7837-1.8485-5.5142-3.358-8.1288zm-2.8687 1.6562c0.95714 1.6578 0.38816 3.7813-1.2697 4.7384-1.6578 0.95713-3.7813 0.38816-4.7384-1.2697-0.95714-1.6578-0.38816-3.7813 1.2696-4.7384 1.6578-0.95712 3.7813-0.38815 4.7384 1.2696zm-12.422 7.1719c0.43751 0.75778 0.17444 1.7396-0.58335 2.1771-0.75779 0.43751-1.7125 0.1588-2.15-0.59898-0.43749-0.75779-0.20148-1.724 0.55629-2.1615 0.75778-0.4375 1.7396-0.17443 2.1771 0.58336z"/>
    <path d="m68.864-617.46c-2.6146-1.5095-5.3451-2.6116-8.1288-3.358l-6.6772 24.94c0.64711 0.17422 1.2918 0.42109 1.8997 0.77206 0.60789 0.35096 1.1441 0.78588 1.6185 1.2592l18.26-18.253c-2.0383-2.0375-4.3579-3.8512-6.9725-5.3607zm-1.6563 2.8687c1.6578 0.95715 2.2268 3.0806 1.2697 4.7384-0.95714 1.6578-3.0806 2.2268-4.7384 1.2696-1.6578-0.95713-2.2268-3.0806-1.2697-4.7384 0.95714-1.6578 3.0806-2.2268 4.7384-1.2697zm-7.1719 12.422c0.75778 0.4375 1.0209 1.4193 0.58335 2.1771-0.43751 0.75779-1.4037 0.99379-2.1615 0.55629-0.75778-0.43752-1.0365-1.3923-0.59898-2.15 0.43751-0.75777 1.4193-1.0208 2.1771-0.58334z"/>
    <path transform="translate(-.17921 -.35843)" d="m60.067-587.94c0 4.3392-3.5176 7.8568-7.8568 7.8568s-7.8568-3.5176-7.8568-7.8568 3.5176-7.8568 7.8568-7.8568 7.8568 3.5176 7.8568 7.8568z"/>
   </g>
   <g transform="translate(551.92 1523)" fill="#1f241c">
    <path d="m52.031-626.62c-21.165 0-38.312 17.147-38.312 38.312s17.147 38.344 38.312 38.344 38.312-17.178 38.312-38.344c0-21.165-17.147-38.312-38.312-38.312zm0 4.6562c18.592 0 33.656 15.064 33.656 33.656s-15.064 33.688-33.656 33.688-33.656-15.096-33.656-33.688 15.064-33.656 33.656-33.656z"/>
    <path transform="matrix(5.9726,0,0,5.9726,-259.8,2923.2)" d="m60.067-587.94c0 4.3392-3.5176 7.8568-7.8568 7.8568s-7.8568-3.5176-7.8568-7.8568 3.5176-7.8568 7.8568-7.8568 7.8568 3.5176 7.8568 7.8568z" stroke-width=".16743"/>
    <path d="m52.031-621.97c-3.0191 0-5.9348 0.41084-8.7188 1.1562l6.688 24.93c0.64752-0.17268 1.3293-0.28125 2.0312-0.28125 0.70193 0 1.3837 0.10857 2.0312 0.28125l6.6875-24.938c-2.784-0.74541-5.6997-1.1562-8.7188-1.1562zm0 3.3125c1.9143 0 3.4688 1.5545 3.4688 3.4688s-1.5545 3.4688-3.4688 3.4688-3.4688-1.5545-3.4688-3.4688 1.5545-3.4688 3.4688-3.4688zm0 14.344c0.87502 0 1.5938 0.71874 1.5938 1.5938 0 0.87502-0.71873 1.5625-1.5938 1.5625-0.87502 0-1.5938-0.68748-1.5938-1.5625 0-0.87501 0.71873-1.5938 1.5938-1.5938z"/>
    <path d="m35.198-617.46c-2.6146 1.5095-4.9342 3.3232-6.9725 5.3607l18.26 18.253c0.47443-0.4733 1.0106-0.90823 1.6185-1.2592 0.60789-0.35097 1.2526-0.59784 1.8997-0.77206l-6.6772-24.94c-2.7837 0.74645-5.5142 1.8485-8.1288 3.358zm1.6562 2.8687c1.6578-0.95714 3.7813-0.38816 4.7384 1.2696 0.95714 1.6578 0.38816 3.7813-1.2696 4.7384-1.6578 0.95714-3.7813 0.38816-4.7384-1.2696-0.95714-1.6578-0.38816-3.7813 1.2697-4.7384zm7.1719 12.422c0.75779-0.43751 1.7396-0.17443 2.1771 0.58335 0.43751 0.75779 0.15881 1.7125-0.59898 2.15-0.75779 0.43751-1.724 0.2015-2.1615-0.55629-0.4375-0.75778-0.17444-1.7396 0.58335-2.1771z"/>
    <path d="m22.875-605.14c-1.5095 2.6146-2.6116 5.3451-3.358 8.1288l24.94 6.6772c0.17422-0.6471 0.42109-1.2918 0.77206-1.8997 0.35096-0.6079 0.78589-1.1441 1.2592-1.6185l-18.253-18.26c-2.0375 2.0383-3.8512 4.3579-5.3607 6.9725zm2.8687 1.6562c0.95714-1.6578 3.0806-2.2268 4.7384-1.2696 1.6578 0.95713 2.2268 3.0806 1.2697 4.7384-0.95714 1.6578-3.0806 2.2268-4.7384 1.2696-1.6578-0.95714-2.2268-3.0806-1.2696-4.7384zm12.422 7.1719c0.43751-0.75778 1.4193-1.0209 2.1771-0.58335 0.75779 0.43751 0.9938 1.4037 0.55629 2.1615-0.43751 0.75778-1.3922 1.0365-2.15 0.59897-0.75778-0.4375-1.0209-1.4193-0.58335-2.1771z"/>
    <path d="m18.365-588.3c-5e-6 3.0191 0.41083 5.9348 1.1562 8.7187l24.937-6.6875c-0.17267-0.64752-0.28125-1.3293-0.28124-2.0312-7e-6 -0.70194 0.10857-1.3837 0.28125-2.0312l-24.938-6.6875c-0.7454 2.784-1.1562 5.6997-1.1562 8.7188zm3.3125 0c0-1.9143 1.5545-3.4688 3.4687-3.4688 1.9143-1e-5 3.4688 1.5545 3.4688 3.4688s-1.5545 3.4688-3.4688 3.4688c-1.9143-1e-5 -3.4688-1.5545-3.4687-3.4688zm14.344-1e-5c3e-6 -0.87501 0.71874-1.5938 1.5938-1.5938 0.87502 0 1.5625 0.71874 1.5625 1.5938-4e-6 0.87501-0.68748 1.5937-1.5625 1.5937-0.87501 0-1.5937-0.71873-1.5937-1.5938z"/>
    <path d="m22.875-571.47c1.5095 2.6146 3.3232 4.9342 5.3607 6.9725l18.253-18.26c-0.4733-0.47443-0.90823-1.0106-1.2592-1.6185-0.35098-0.60789-0.59784-1.2526-0.77206-1.8997l-24.94 6.6772c0.74645 2.7837 1.8485 5.5142 3.358 8.1288zm2.8687-1.6562c-0.95714-1.6578-0.38816-3.7813 1.2696-4.7384 1.6578-0.95714 3.7813-0.38816 4.7384 1.2696 0.95714 1.6578 0.38816 3.7813-1.2697 4.7384-1.6578 0.95713-3.7813 0.38816-4.7384-1.2696zm12.422-7.1719c-0.4375-0.75778-0.17443-1.7396 0.58335-2.1771 0.75779-0.43751 1.7125-0.1588 2.15 0.59898 0.4375 0.75779 0.20149 1.724-0.5563 2.1615-0.75778 0.4375-1.7396 0.17443-2.1771-0.58336z"/>
    <path d="m35.198-559.15c2.6146 1.5096 5.3451 2.6116 8.1288 3.358l6.6772-24.94c-0.6471-0.17422-1.2919-0.42109-1.8997-0.77206-0.6079-0.35096-1.1441-0.78589-1.6185-1.2592l-18.26 18.253c2.0383 2.0375 4.3579 3.8512 6.9725 5.3607zm1.6562-2.8687c-1.6578-0.95714-2.2268-3.0806-1.2697-4.7384 0.95713-1.6578 3.0806-2.2268 4.7384-1.2696 1.6578 0.95713 2.2268 3.0806 1.2696 4.7384-0.95714 1.6578-3.0806 2.2268-4.7384 1.2696zm7.1719-12.422c-0.75778-0.4375-1.0209-1.4193-0.58335-2.1771 0.43751-0.75779 1.4037-0.99379 2.1615-0.55629 0.75778 0.43752 1.0365 1.3923 0.59897 2.15-0.43751 0.75777-1.4193 1.0208-2.1771 0.58334z"/>
    <path d="m52.031-554.64c3.0191 1e-5 5.9348-0.41083 8.7187-1.1562l-6.6875-24.937c-0.64752 0.17267-1.3293 0.28125-2.0312 0.28124-0.70194 1e-5 -1.3837-0.10857-2.0312-0.28124l-6.6875 24.938c2.784 0.7454 5.6997 1.1562 8.7188 1.1562zm0-3.3125c-1.9143 0-3.4688-1.5545-3.4688-3.4688-5e-6 -1.9143 1.5545-3.4688 3.4688-3.4688s3.4688 1.5545 3.4687 3.4688c-1.2e-5 1.9143-1.5545 3.4688-3.4687 3.4688zm-1.3e-5 -14.344c-0.875 0-1.5937-0.71873-1.5937-1.5938 0-0.87502 0.71874-1.5625 1.5938-1.5625 0.87502 1e-5 1.5938 0.68749 1.5938 1.5625-6e-6 0.875-0.71874 1.5937-1.5938 1.5937z"/>
    <path d="m68.864-559.15c2.6146-1.5095 4.9342-3.3232 6.9725-5.3607l-18.26-18.253c-0.47443 0.4733-1.0106 0.90823-1.6185 1.2592-0.60789 0.35097-1.2526 0.59784-1.8997 0.77206l6.6772 24.94c2.7837-0.74646 5.5142-1.8485 8.1288-3.358zm-1.6562-2.8687c-1.6578 0.95714-3.7813 0.38816-4.7384-1.2696-0.95714-1.6578-0.38816-3.7813 1.2696-4.7384 1.6578-0.95714 3.7813-0.38816 4.7384 1.2696 0.95712 1.6578 0.38816 3.7813-1.2696 4.7384zm-7.1719-12.422c-0.75778 0.43751-1.7396 0.17444-2.1771-0.58335-0.43751-0.75779-0.1588-1.7125 0.59898-2.15 0.7578-0.4375 1.724-0.20149 2.1615 0.55629s0.17443 1.7396-0.58336 2.1771z"/>
    <path d="m81.187-571.47c1.5095-2.6146 2.6116-5.3451 3.358-8.1288l-24.94-6.6772c-0.17422 0.64711-0.42109 1.2918-0.77206 1.8997-0.35096 0.60789-0.78589 1.1441-1.2592 1.6185l18.253 18.26c2.0375-2.0383 3.8512-4.3579 5.3607-6.9726zm-2.8687-1.6562c-0.95714 1.6578-3.0806 2.2268-4.7384 1.2696-1.6578-0.95714-2.2268-3.0806-1.2697-4.7384 0.95713-1.6578 3.0806-2.2268 4.7384-1.2696 1.6578 0.95714 2.2268 3.0806 1.2697 4.7384zm-12.422-7.1719c-0.4375 0.75778-1.4193 1.0209-2.1771 0.58335-0.75779-0.43751-0.9938-1.4037-0.55629-2.1615 0.43752-0.75778 1.3923-1.0365 2.15-0.59898 0.75777 0.43751 1.0209 1.4193 0.58334 2.1771z"/>
    <path d="m85.698-588.3c3e-6 -3.0191-0.41084-5.9348-1.1563-8.7187l-24.937 6.6875c0.17268 0.64752 0.28125 1.3293 0.28125 2.0312 3e-6 0.70193-0.10857 1.3837-0.28124 2.0312l24.938 6.6875c0.7454-2.784 1.1562-5.6997 1.1562-8.7188zm-3.3125 0c0 1.9143-1.5545 3.4688-3.4688 3.4688s-3.4688-1.5545-3.4688-3.4688c-4e-6 -1.9143 1.5545-3.4688 3.4688-3.4688 1.9143 1e-5 3.4688 1.5545 3.4688 3.4688zm-14.344 1e-5c4e-6 0.87501-0.71872 1.5937-1.5937 1.5938-0.87502 0-1.5625-0.71875-1.5625-1.5938 1.3e-5 -0.87501 0.68749-1.5937 1.5625-1.5938 0.875 1e-5 1.5937 0.71874 1.5937 1.5938z"/>
    <path d="m81.187-605.14c-1.5095-2.6146-3.3232-4.9342-5.3607-6.9725l-18.253 18.26c0.4733 0.47444 0.90823 1.0106 1.2592 1.6185 0.35097 0.60789 0.59784 1.2526 0.77206 1.8997l24.94-6.6772c-0.74646-2.7837-1.8485-5.5142-3.358-8.1288zm-2.8687 1.6562c0.95714 1.6578 0.38816 3.7813-1.2697 4.7384-1.6578 0.95713-3.7813 0.38816-4.7384-1.2697-0.95714-1.6578-0.38816-3.7813 1.2696-4.7384 1.6578-0.95712 3.7813-0.38815 4.7384 1.2696zm-12.422 7.1719c0.43751 0.75778 0.17444 1.7396-0.58335 2.1771-0.75779 0.43751-1.7125 0.1588-2.15-0.59898-0.43749-0.75779-0.20148-1.724 0.55629-2.1615 0.75778-0.4375 1.7396-0.17443 2.1771 0.58336z"/>
    <path d="m68.864-617.46c-2.6146-1.5095-5.3451-2.6116-8.1288-3.358l-6.6772 24.94c0.64711 0.17422 1.2918 0.42109 1.8997 0.77206 0.60789 0.35096 1.1441 0.78588 1.6185 1.2592l18.26-18.253c-2.0383-2.0375-4.3579-3.8512-6.9725-5.3607zm-1.6563 2.8687c1.6578 0.95715 2.2268 3.0806 1.2697 4.7384-0.95714 1.6578-3.0806 2.2268-4.7384 1.2696-1.6578-0.95713-2.2268-3.0806-1.2697-4.7384 0.95714-1.6578 3.0806-2.2268 4.7384-1.2697zm-7.1719 12.422c0.75778 0.4375 1.0209 1.4193 0.58335 2.1771-0.43751 0.75779-1.4037 0.99379-2.1615 0.55629-0.75778-0.43752-1.0365-1.3923-0.59898-2.15 0.43751-0.75777 1.4193-1.0208 2.1771-0.58334z"/>
    <path transform="translate(-.17921 -.35843)" d="m60.067-587.94c0 4.3392-3.5176 7.8568-7.8568 7.8568s-7.8568-3.5176-7.8568-7.8568 3.5176-7.8568 7.8568-7.8568 7.8568 3.5176 7.8568 7.8568z"/>
   </g>
  </g>
 </g>
</svg>
